<svg xmlns="http://www.w3.org/2000/svg" xmlns:xlink="http://www.w3.org/1999/xlink" width="10mm" height="10mm" viewBox="0 0 10 10"><defs><linearGradient id="b"><stop offset="0" style="stop-color:#fffbab;stop-opacity:1"/><stop offset="1" style="stop-color:#f0cb26;stop-opacity:1"/></linearGradient><linearGradient id="a"><stop offset="0" style="stop-color:#f0cb26;stop-opacity:1"/><stop offset=".864" style="stop-color:#fffbab;stop-opacity:1"/></linearGradient><linearGradient xlink:href="#a" id="d" x1="10.566" x2=".829" y1="4.921" y2="7.977" gradientTransform="matrix(.82751 0 0 1.0051 .065 .184)" gradientUnits="userSpaceOnUse"/><linearGradient xlink:href="#b" id="c" x1=".597" x2="7.753" y1="7.18" y2="1.256" gradientTransform="matrix(.82124 0 0 1.0053 .128 -.8)" gradientUnits="userSpaceOnUse"/></defs><path d="M.342 1.391c.381-.01.33 0 .33 0l2.987.032s0 .002.202.002c.044 0 .03.312.03.312l.008.526s-.017.4.089.4c.093 0 .292-.005.292-.005l3.591.006h.305c.082-.002.044.53.044.53l-.046 4.91s.041.452-.082.452H.328c-.165 0-.125-.606-.125-.606l.038-6.256s-.015-.3.101-.303" style="fill:url(#c);stroke:#d8882d;stroke-width:.397294;stroke-linecap:round;stroke-linejoin:round;stroke-dasharray:none"/><path d="m.313 8.555.103-.485.859-2.701s.066-.464.198-.466c.253-.003.395 0 .395 0h3.625l.275-1.006 4.033.048-1.665 4.61H.751Z" style="fill:url(#d);stroke:#d8882d;stroke-width:.398767;stroke-linecap:butt;stroke-linejoin:round;stroke-dasharray:none;stroke-opacity:1"/></svg>