<svg xmlns="http://www.w3.org/2000/svg" xmlns:xlink="http://www.w3.org/1999/xlink" xml:space="preserve" width="10mm" height="10mm" viewBox="0 0 10 10"><defs><linearGradient xlink:href="#a" id="b" x1="11.786" x2=".829" y1="3.828" y2="7.977" gradientTransform="matrix(.82751 0 0 1.0051 .178 3.882)" gradientUnits="userSpaceOnUse"/><linearGradient id="a"><stop offset="0" style="stop-color:#565759;stop-opacity:1"/><stop offset="1" style="stop-color:#b0b2b3;stop-opacity:1"/></linearGradient></defs><path d="M.569.203 2.89.201c.193.002.174 0 .18.221l.006.335c0 .262.073.25.297.25l2.792.004c.292-.004.262.072.271.336l-.035 3.116c0 .358-.236.286-.552.286H.6c-.366 0-.396-.045-.397-.384V.395C.203.174.37.203.57.203z" style="fill:url(#b);stroke:#393939;stroke-width:.398767;stroke-linecap:butt;stroke-linejoin:round;stroke-dasharray:none;font-variation-settings:normal;opacity:1;vector-effect:none;fill-opacity:1;stroke-miterlimit:4;stroke-dashoffset:0;stroke-opacity:1;-inkscape-stroke:none;stop-color:#000;stop-opacity:1"/><path d="M2.317 2.683 4.64 2.68c.193.002.174 0 .18.221l.006.334c0 .263.073.25.297.25l2.792.005c.291-.004.262.072.27.336l-.034 3.115c0 .359-.236.287-.552.287H2.35c-.366 0-.396-.045-.397-.384v-3.97c0-.221.166-.192.365-.192z" style="fill:url(#b);stroke:#393939;stroke-width:.398767;stroke-linecap:butt;stroke-linejoin:round;stroke-dasharray:none;font-variation-settings:normal;opacity:1;vector-effect:none;fill-opacity:1;stroke-miterlimit:4;stroke-dashoffset:0;stroke-opacity:1;-inkscape-stroke:none;stop-color:#000;stop-opacity:1"/><path d="m3.887 5.325 2.322-.002c.193.002.174 0 .18.221l.006.334c0 .263.073.25.297.25l2.792.005c.291-.004.262.072.271.336L9.72 9.584c0 .359-.236.287-.552.287h-5.25c-.366 0-.396-.045-.397-.385v-3.97c0-.22.166-.191.366-.191z" style="fill:url(#b);stroke:#393939;stroke-width:.398767;stroke-linecap:butt;stroke-linejoin:round;stroke-dasharray:none;font-variation-settings:normal;opacity:1;vector-effect:none;fill-opacity:1;stroke-miterlimit:4;stroke-dashoffset:0;stroke-opacity:1;-inkscape-stroke:none;stop-color:#000;stop-opacity:1"/></svg>