<svg xmlns="http://www.w3.org/2000/svg" xmlns:xlink="http://www.w3.org/1999/xlink" xml:space="preserve" width="10mm" height="10mm" viewBox="0 0 10 10"><defs><linearGradient id="a"><stop offset="0" style="stop-color:#fffbab;stop-opacity:1"/><stop offset="1" style="stop-color:#f0cb26;stop-opacity:1"/></linearGradient><linearGradient xlink:href="#a" id="c" x1="-.151" x2="11.304" y1="9.483" y2="3.614" gradientTransform="matrix(.82124 0 0 1.0053 .128 -.8)" gradientUnits="userSpaceOnUse"/><linearGradient xlink:href="#a" id="b" x1="-.151" x2="11.304" y1="9.483" y2="3.614" gradientTransform="matrix(.82124 0 0 1.0053 .128 -.8)" gradientUnits="userSpaceOnUse"/></defs><path d="M1.244.465 3.757.462c.818.01.644 1.496 1.702 1.496l3.442.006c.439-.006.394.109.408.51-3.617 0-7.144.067-8.614.067V.756c0-.335.25-.291.549-.291" style="fill:#eec510;fill-opacity:1;stroke:#d8882d;stroke-width:.4;stroke-linecap:round;stroke-linejoin:round;stroke-dasharray:none"/><path d="M9.309 6.076 8.215 7.5l-1.12-1.422-1.233 1.422-1.271-1.422-1.395 1.422-1.271-1.422L.69 7.497l.004 1.459c.001.515.046.582.595.582h7.137c.474 0 .882.11.882-.434z" style="fill:url(#b);stroke:#d8882d;stroke-width:.4;stroke-linecap:round;stroke-linejoin:round;stroke-dasharray:none"/><path d="M1.127 2.121c-.114.005-.44.21-.44.492l.007 2.864 1.234-1.421L3.2 5.478l1.394-1.422 1.271 1.422 1.233-1.422 1.12 1.422 1.094-1.423V2.636c-.013-.4.03-.515-.408-.509l-3.442-.006s-4.22-.004-4.335 0" style="fill:url(#c);stroke:#d8882d;stroke-width:.4;stroke-linecap:round;stroke-linejoin:round;stroke-dasharray:none"/></svg>