<svg xmlns="http://www.w3.org/2000/svg" width="10mm" height="10mm" viewBox="0 0 10 10"><path d="m9.398 3.617-.983 3.372-.102.41q-.015.076-.015.112 0 .06.04.106.046.046.092.046.106 0 .294-.162.076-.066.365-.467l.177.092q-.36.659-.77.963-.406.3-.878.3-.289 0-.44-.148-.153-.152-.153-.38 0-.198.163-.735l.121-.411q-.588 1.009-1.13 1.43-.315.243-.67.243-.466 0-.674-.38-.208-.386-.208-.867 0-.715.436-1.638.436-.928 1.146-1.49.583-.467 1.095-.467.284 0 .456.167.173.162.254.598l.183-.623Zm-1.622.963q0-.41-.127-.593-.091-.127-.249-.127-.157 0-.324.152-.34.315-.735 1.278-.39.958-.39 1.658 0 .269.086.39.09.117.197.117.228 0 .462-.264.334-.375.603-.917.477-.954.477-1.694" aria-label="a" style="font-style:italic;font-weight:700;font-size:10.3842px;line-height:1.25;font-family:&quot;Times New Roman&quot;;-inkscape-font-specification:&quot;Times New Roman, &quot;;fill:#4681c2;stroke-width:.260015"/><path d="M.081 4.731h1.4l1.087 3.607 1.276-6.38H9.92" style="fill:none;stroke:#565656;stroke-width:.830087;stroke-linecap:butt;stroke-linejoin:miter;stroke-dasharray:none;stroke-opacity:1"/></svg>