<svg xmlns="http://www.w3.org/2000/svg" width="10mm" height="10mm" viewBox="0 0 10 10"><g style="fill:#4681c2;fill-opacity:1;stroke:#4681c2;stroke-opacity:1"><path d="M5.267.205a.907.933 0 0 0-.907.933.907.933 0 0 0 .907.933.907.933 0 0 0 .907-.933.907.933 0 0 0-.907-.933m0 .43a.488.503 0 0 1 .488.503.488.503 0 0 1-.488.503.488.503 0 0 1-.489-.503.488.503 0 0 1 .489-.503" style="fill:#4681c2;fill-opacity:1;stroke:#4681c2;stroke-width:.153043;stroke-linecap:round;stroke-linejoin:round;stroke-dasharray:none;stroke-opacity:1;paint-order:fill markers stroke" transform="matrix(1.47299 0 0 1.34526 -2.758 -.109)"/></g><path d="M2.85 2.946h4.3v.595h-4.3Z" style="fill:#4681c2;fill-opacity:1;stroke:#4681c2;stroke-width:.359167;stroke-linecap:round;stroke-linejoin:miter;stroke-dasharray:none;stroke-opacity:1;paint-order:fill markers stroke"/><path d="m5.107 7.568.083 1.726s.155-.221.317-.231c1.635-.101 2.666-1.015 3.353-1.938l-.1.03c.035.108-1.822 1.255-3.206 1.298-.359.011-.474-.86-.447-.885Z" style="fill:#4681c2;fill-opacity:1;stroke:#4681c2;stroke-width:.447011;stroke-linecap:square;stroke-linejoin:miter;stroke-dasharray:none;stroke-opacity:1"/><path d="m9.266 7.83-.4-.824-.917.06 1.349-.799Z" style="fill:#4681c2;fill-opacity:1;stroke:#4681c2;stroke-width:.296134px;stroke-linecap:round;stroke-linejoin:round;stroke-opacity:1"/><path d="M4.551 2.33h.899v6.12h-.899z" style="fill:#4681c2;fill-opacity:1;stroke:#4681c2;stroke-width:.350367;stroke-linecap:round;stroke-linejoin:miter;stroke-dasharray:none;stroke-opacity:1;paint-order:fill markers stroke"/><path d="M4.893 7.568 4.81 9.294s-.155-.221-.317-.231C2.858 8.962 1.827 8.048 1.14 7.125l.1.03c-.035.108 1.822 1.255 3.206 1.298.359.011.474-.86.447-.885Z" style="fill:#4681c2;fill-opacity:1;stroke:#4681c2;stroke-width:.447011;stroke-linecap:square;stroke-linejoin:miter;stroke-dasharray:none;stroke-opacity:1"/><path d="m.734 7.83.4-.824.917.06-1.349-.799Z" style="fill:#4681c2;fill-opacity:1;stroke:#4681c2;stroke-width:.296134px;stroke-linecap:round;stroke-linejoin:round;stroke-opacity:1"/></svg>