<svg xmlns="http://www.w3.org/2000/svg" xmlns:xlink="http://www.w3.org/1999/xlink" width="10mm" height="10mm" viewBox="0 0 10 10"><defs><linearGradient id="a"><stop offset="0" style="stop-color:#d7e8fe;stop-opacity:1"/><stop offset="1" style="stop-color:#d7e8fe;stop-opacity:0"/></linearGradient><linearGradient xlink:href="#a" id="b" x1="2.1" x2="6.931" y1="9.1" y2="1.874" gradientTransform="matrix(.82313 0 0 .85775 .819 .392)" gradientUnits="userSpaceOnUse"/></defs><path d="M.25.25h2.94l2.664 2.879v5.147H.25Z" style="fill:#fff;stroke:#4681c2;stroke-width:.5;stroke-miterlimit:4;stroke-dasharray:none"/><path d="m3.68.654-.002 2.88h2.647" style="fill:none;stroke:#4681c2;stroke-width:.418148;stroke-linecap:butt;stroke-linejoin:miter;stroke-dasharray:none;stroke-opacity:1"/><path d="m2.547 1.164 2.8-.045-.002 2.41 1.96-.025.017 4.694H2.547Z" style="fill:url(#b);stroke-width:.237268"/><path d="M1.598 1.266h2.94l2.664 2.879V9.29H1.598Z" style="fill:#fff;stroke:#4681c2;stroke-width:.5;stroke-miterlimit:4;stroke-dasharray:none"/><path d="m4.538 1.266-.003 2.879h2.647" style="fill:none;stroke:#4681c2;stroke-width:.5;stroke-linecap:butt;stroke-linejoin:miter;stroke-dasharray:none;stroke-opacity:1"/><path d="M-.317 9.488h.838v3.903h-.838z" style="fill:#dfba0f;fill-opacity:1;stroke:#a5661f;stroke-width:.682322;stroke-linecap:round;stroke-linejoin:round;stroke-dasharray:none;stroke-opacity:1" transform="rotate(-44.038)skewX(.056)"/><ellipse cx="5.734" cy="5.794" rx="2.34" ry="2.273" style="fill:#d7e8fe;fill-opacity:1;stroke:#4681c2;stroke-width:.682322;stroke-linecap:round;stroke-linejoin:round;stroke-dasharray:none;stroke-opacity:1"/><path d="M6.43 4.337c.166.187-.67.3-1.262.685S4.139 6.251 3.974 6.064s.22-1.173.813-1.558c.592-.385 1.478-.356 1.644-.169" style="fill:#fff;stroke-width:.428527;stroke-linecap:round;stroke-linejoin:round"/></svg>