<svg xmlns="http://www.w3.org/2000/svg" xmlns:xlink="http://www.w3.org/1999/xlink" width="10mm" height="10mm" viewBox="0 0 10 10"><defs><linearGradient xlink:href="#a" id="b" x1="2.37" x2="6.095" y1="4.803" y2="4.803" gradientTransform="rotate(45 .964 8.9)scale(.78204 .61738)" gradientUnits="userSpaceOnUse"/><linearGradient id="a"><stop offset="0" style="stop-color:#f48400;stop-opacity:1"/><stop offset=".319" style="stop-color:#f8eaaa;stop-opacity:1"/><stop offset="1" style="stop-color:#f48400;stop-opacity:1"/></linearGradient></defs><path d="M.272 3.175v1.819" style="fill:none;stroke:#000;stroke-width:.4;stroke-linecap:square;stroke-linejoin:miter;stroke-dasharray:none;stroke-opacity:1"/><path d="M1.882 3.666h3.356v2.656H1.882z" style="fill:#b1d3ff;fill-opacity:1;stroke:#4681c2;stroke-width:.6;stroke-linecap:butt;stroke-linejoin:miter;stroke-dasharray:none;stroke-dashoffset:0;stroke-opacity:1;paint-order:fill markers stroke"/><path d="M.072 4.994h1.51" style="fill:none;stroke:#000;stroke-width:.4;stroke-linecap:butt;stroke-linejoin:miter;stroke-dasharray:none;stroke-opacity:1"/><path d="M8.343 3.433c.14.074 1.364 1.3 1.41 1.416.021.057-.029.086-.029.086l-.296.297L9 5.665l-1.48-1.48.433-.439.292-.292s.04-.05.098-.02z" style="fill:#b41ca5;fill-opacity:1;stroke:#b41ca5;stroke-width:.346368;stroke-linecap:square;stroke-linejoin:miter;stroke-dasharray:none;stroke-opacity:1"/><path d="m7.308 4.146 1.728 1.728L6.3 8.55 4.62 6.864Z" style="fill:url(#b);stroke:none;stroke-width:.277939;stroke-linejoin:round"/><path d="m4.619 6.864-1.41 3.054L6.302 8.55C6.01 7.771 5.24 7.045 4.62 6.864" style="fill:#f8eaaa;fill-opacity:1;stroke:none;stroke-width:.510497;stroke-linecap:square;stroke-linejoin:bevel;stroke-dasharray:none;stroke-opacity:1"/><path d="m6.267 8.465-1.871.824" style="fill:none;stroke:#f5971f;stroke-width:.18656;stroke-linecap:butt;stroke-linejoin:miter;stroke-dasharray:none;stroke-opacity:1"/><path d="M8.099-2.236h2.444v.339H8.099z" style="fill:#a1a1a1;fill-opacity:1;stroke:none;stroke-width:.460437;stroke-linecap:square;stroke-linejoin:bevel;stroke-dasharray:none;stroke-opacity:1" transform="rotate(45)"/><path d="m4.719 6.885-.895 1.93" style="fill:none;stroke:#f5971f;stroke-width:.18656;stroke-linecap:butt;stroke-linejoin:miter;stroke-dasharray:none;stroke-opacity:1"/><path d="m3.21 9.918.556-1.205c.363.1.531.265.661.666z" style="fill:#000;fill-opacity:1;stroke:none;stroke-width:.361625;stroke-linecap:butt;stroke-linejoin:miter;stroke-dasharray:none;stroke-opacity:1"/></svg>