/* XPM */
static char * outwiker_xpm[] = {
"32 32 275 2",
"  	c None",
". 	c #000E00",
"+ 	c #001400",
"@ 	c #001600",
"# 	c #001900",
"$ 	c #001200",
"% 	c #001A00",
"& 	c #007400",
"* 	c #009900",
"= 	c #00A500",
"- 	c #00A000",
"; 	c #008400",
"> 	c #003900",
", 	c #001100",
"' 	c #004600",
") 	c #009700",
"! 	c #007500",
"~ 	c #001300",
"{ 	c #004900",
"] 	c #008600",
"^ 	c #009A00",
"/ 	c #008100",
"( 	c #201501",
"_ 	c #251802",
": 	c #271802",
"< 	c #001B00",
"[ 	c #008C00",
"} 	c #007600",
"| 	c #00A200",
"1 	c #006B00",
"2 	c #009600",
"3 	c #004C00",
"4 	c #0F0A01",
"5 	c #654005",
"6 	c #AE6E0A",
"7 	c #EA950D",
"8 	c #FFA20E",
"9 	c #AB6D09",
"0 	c #007200",
"a 	c #008300",
"b 	c #003000",
"c 	c #001700",
"d 	c #009800",
"e 	c #001500",
"f 	c #2E1D02",
"g 	c #C9800B",
"h 	c #1F1402",
"i 	c #008700",
"j 	c #006E00",
"k 	c #008B00",
"l 	c #009D00",
"m 	c #007100",
"n 	c #001F00",
"o 	c #261802",
"p 	c #E7930D",
"q 	c #201401",
"r 	c #009300",
"s 	c #007F00",
"t 	c #004F00",
"u 	c #004400",
"v 	c #211601",
"w 	c #F1990D",
"x 	c #FEA10E",
"y 	c #1E1301",
"z 	c #001C00",
"A 	c #007700",
"B 	c #006D00",
"C 	c #003A00",
"D 	c #00A400",
"E 	c #0B0802",
"F 	c #1E1401",
"G 	c #221502",
"H 	c #513304",
"I 	c #211402",
"J 	c #211602",
"K 	c #CF840B",
"L 	c #001D00",
"M 	c #009500",
"N 	c #006C00",
"O 	c #026500",
"P 	c #3B2B03",
"Q 	c #A56909",
"R 	c #E5910D",
"S 	c #7F5107",
"T 	c #AD6E09",
"U 	c #311F02",
"V 	c #009400",
"W 	c #007800",
"X 	c #815607",
"Y 	c #C67E0B",
"Z 	c #865507",
"` 	c #4F3304",
" .	c #584005",
"..	c #FB9F0E",
"+.	c #211502",
"@.	c #5B3A05",
"#.	c #754B06",
"$.	c #009200",
"%.	c #008D00",
"&.	c #006800",
"*.	c #009F00",
"=.	c #362C03",
"-.	c #FF9D0F",
";.	c #392503",
">.	c #342103",
",.	c #9C6309",
"'.	c #009000",
").	c #150D02",
"!.	c #1D1201",
"~.	c #211B02",
"{.	c #493E04",
"].	c #403004",
"^.	c #007A00",
"/.	c #262402",
"(.	c #FFA10E",
"_.	c #FF990F",
":.	c #845407",
"<.	c #241702",
"[.	c #BB770A",
"}.	c #181102",
"|.	c #008F00",
"1.	c #000400",
"2.	c #241802",
"3.	c #BA760A",
"4.	c #F0980D",
"5.	c #C17B0B",
"6.	c #134E01",
"7.	c #1E2202",
"8.	c #FF9310",
"9.	c #CC820B",
"0.	c #201302",
"a.	c #D98A0C",
"b.	c #211401",
"c.	c #008E00",
"d.	c #241602",
"e.	c #F99E0E",
"f.	c #1A2901",
"g.	c #192501",
"h.	c #F29A0D",
"i.	c #FF9410",
"j.	c #FF9B0F",
"k.	c #FDA10E",
"l.	c #1D1301",
"m.	c #F79D0E",
"n.	c #1F1401",
"o.	c #1F1301",
"p.	c #ED920E",
"q.	c #322F03",
"r.	c #182A01",
"s.	c #FF8911",
"t.	c #4E3204",
"u.	c #211501",
"v.	c #007900",
"w.	c #008A00",
"x.	c #B36E0B",
"y.	c #835907",
"z.	c #036D00",
"A.	c #172701",
"B.	c #E18F0C",
"C.	c #FF8612",
"D.	c #FF9F0E",
"E.	c #C07A0B",
"F.	c #1D1202",
"G.	c #271902",
"H.	c #664005",
"I.	c #FF9210",
"J.	c #183201",
"K.	c #171C01",
"L.	c #DE8D0C",
"M.	c #FF8C11",
"N.	c #251702",
"O.	c #221601",
"P.	c #281902",
"Q.	c #007D00",
"R.	c #FF9C0F",
"S.	c #3E3703",
"T.	c #0F0E01",
"U.	c #DA8A0C",
"V.	c #FF7A14",
"W.	c #815207",
"X.	c #004A00",
"Y.	c #006F00",
"Z.	c #009E00",
"`.	c #007C00",
" +	c #141501",
".+	c #CC7F0B",
"++	c #FF8812",
"@+	c #010000",
"#+	c #D6880C",
"$+	c #FF8312",
"%+	c #FF9011",
"&+	c #ED970D",
"*+	c #008200",
"=+	c #008500",
"-+	c #5B4805",
";+	c #FF8412",
">+	c #FF9E0F",
",+	c #1C1201",
"'+	c #D2850C",
")+	c #FF980F",
"!+	c #FF7514",
"~+	c #7E5007",
"{+	c #070400",
"]+	c #C47D0B",
"^+	c #291A02",
"/+	c #001800",
"(+	c #1E2A02",
"_+	c #FE9310",
":+	c #D4870C",
"<+	c #F69C0E",
"[+	c #FF7D13",
"}+	c #F49B0D",
"|+	c #0F0901",
"1+	c #B9760A",
"2+	c #006700",
"3+	c #009B00",
"4+	c #0D5501",
"5+	c #AB6F0A",
"6+	c #FF7015",
"7+	c #FF9610",
"8+	c #001000",
"9+	c #004100",
"0+	c #006300",
"a+	c #004000",
"b+	c #221902",
"c+	c #FE8E11",
"d+	c #FF8013",
"e+	c #FF7914",
"f+	c #FF7814",
"g+	c #2A1A02",
"h+	c #170E02",
"i+	c #A56709",
"j+	c #FF7714",
"k+	c #FF8E11",
"l+	c #EF980D",
"m+	c #FE9010",
"n+	c #FF8512",
"o+	c #2B1C02",
"p+	c #221602",
"q+	c #FD8D11",
"r+	c #FF7215",
"s+	c #AC6D09",
"t+	c #FF7B14",
"u+	c #160E02",
"v+	c #9B6208",
"w+	c #FF7414",
"x+	c #764C06",
"y+	c #160E01",
"z+	c #FA9410",
"A+	c #FF8F11",
"B+	c #FF9110",
"C+	c #FFA00E",
"D+	c #2C1C02",
"E+	c #FB8D11",
"F+	c #FF8D11",
"G+	c #C1770B",
"H+	c #1B1101",
"I+	c #100A02",
"J+	c #8D5A07",
"K+	c #FF8213",
"L+	c #C5780C",
"M+	c #492E03",
"N+	c #1A1001",
"O+	c #925B07",
"P+	c #F8930F",
"Q+	c #996108",
"R+	c #1C1102",
"S+	c #E88D0E",
"T+	c #F3900F",
"U+	c #8E5A07",
"V+	c #261902",
"W+	c #714806",
"X+	c #3A2503",
"Y+	c #CB810B",
"Z+	c #573704",
"          . + @ # + $                                           ",
"        % & * = = - ; > ,                                       ",
"    $ ' ) = = = = = = = ! ~                                     ",
"    { ] ^ = = = = = = = = / ,                         ( _ :     ",
"  < [ } = = | } 1 2 = = = = 3                   4 5 6 7 8 9     ",
", 0 0 a = = b .   c d = = = | e                 f 8 8 8 8 g h   ",
"e i j k = l e       m = = = = n                 o 8 8 8 8 p q   ",
"@ / j r = s +       t = = = = u                 v w 8 8 8 x y   ",
"z A j ) = B         C = = = D t E F G H I       J K 8 8 8 8 o   ",
"L } j M = N         > = = = O P Q R 8 8 S         T 8 8 8 8 U   ",
"L } j V = N         > = = = W X 8 8 8 8 Y h       Z 8 8 8 8 `   ",
"L } j r = N         > = = = [  .8 8 8 8 ..+.      @.8 8 8 8 #.  ",
"L } j $.= N         > %.&.- *.=.-.8 8 8 8 ;.      >.8 8 8 8 ,.  ",
"L } j '.= N     ).!.~.{.].^.= /.(._.8 8 8 :.      <.8 8 8 8 [.}.",
"L } j |.= N 1.2.3.4.8 8 5.6.= 7.8 8.8 8 8 9.0.    ( 8 8 8 8 a.b.",
"L } j c.= N   d.8 8 8 8 e.f.= g.h.i.j.8 8 k.+.    l.8 8 8 8 m.n.",
"L } j [ = N   o.p.8 8 8 8 q.* r.R (.s.8 8 8 t.    !...8 8 8 8 u.",
"% v.j w.= 0     x.j.8 8 8 y.z.A.B.8 C.D.8 8 E.F.  q 4.8 8 8 8 G.",
"~ ; j a = |.@   H.I.8 8 8 p J.K.L.8 8.M.8 8 8 N.  O.R 8 8 8 8 P.",
"@ Q.j ^.= = +   : 8.R.8 8 8 S.T.U.8 (.V.8 8 8 W.  v U.8 8 8 8 P.",
"  X.0 Y.Z.= `.n  +.+++8 8 8 [.@+#+8 8 $+%+8 8 &+!.h K 8 8 8 8 P.",
"  , `.j *+= = = =+-+;+>+8 8 x ,+'+8 8 )+!+D.8 8 ~+{+]+8 8 8 8 ^+",
"    /+/ Y.k = = = (+_+++8 8 8 :+<+8 8 8 [+;+8 8 }+|+1+8 8 8 8 ^+",
"      ~ 2+`.*+3+= 4+5+V.D.8 8 8 8 8 8 8 i.6+7+8 8 3.B.8 8 8 8 ^+",
"        8+# 9+0+N a+b+c+d+8 8 8 8 8 8 8 8 e+f+(.8 8 8 8 8 8 8 g+",
"                    h+i+j+k+8 8 8 8 8 8 l+m+6+n+8 8 8 8 8 8 8 o+",
"                      p+q+r+_.8 8 8 8 8 s+Q t+6+$+(.8 8 8 8 8 o+",
"                      u+v+j+w+++R.8 8 8 x+y+z+6+6+!+s.A+B+8.C+D+",
"                        n.E+6+6+6+e+F+G+H+I+J+K+6+6+6+e+M.L+M+N+",
"                          O+t+n+P+Q+o R+    n.S+!+n+T+U+V+F.    ",
"                          y a.W+,+            X+Y+Z+q           ",
"                            H+                  u.              "};
