<svg xmlns="http://www.w3.org/2000/svg" xmlns:xlink="http://www.w3.org/1999/xlink" width="10mm" height="10mm" viewBox="0 0 10 10"><defs><linearGradient id="a"><stop offset="0" style="stop-color:#d7e8fe;stop-opacity:1"/><stop offset="1" style="stop-color:#d7e8fe;stop-opacity:0"/></linearGradient><linearGradient xlink:href="#a" id="b" x1="2.1" x2="6.931" y1="9.1" y2="1.874" gradientTransform="matrix(1.00094 0 0 1.01517 -13.093 -14.722)" gradientUnits="userSpaceOnUse"/></defs><path d="M-11.516-14.422h3.575l3.24 3.408v6.09h-6.815z" style="fill:#fff;stroke:#4681c2;stroke-width:.501634;stroke-miterlimit:4;stroke-dasharray:none"/><path d="m-10.99-13.808 3.404-.054-.003 2.852 2.383-.028.02 5.554h-5.805Z" style="fill:url(#b);stroke-width:.28464"/><path d="m-7.94-14.422-.005 3.408h3.22" style="fill:none;stroke:#4681c2;stroke-width:.501634;stroke-linecap:butt;stroke-linejoin:miter;stroke-dasharray:none;stroke-opacity:1"/><path d="M-10.374-7.783h4.571v1.137h-4.571z" style="fill:#b1d3ff;fill-opacity:1;stroke:#4681c2;stroke-width:.42737;stroke-linejoin:miter;stroke-dasharray:none;stroke-opacity:1"/><path d="M6.039 5.273H3.326L2.85 6.38q-.175.408-.175.61 0 .16.15.284.154.119.66.155v.191H1.28v-.19q.44-.078.569-.202.263-.248.584-1.008L4.897.452h.18l2.44 5.829q.294.703.532.915.243.206.672.232v.191H5.956v-.19q.419-.022.563-.14.15-.12.15-.29 0-.227-.207-.718zm-.145-.382L4.705 2.059 3.485 4.89Z" aria-label="A" style="font-size:10.5833px;line-height:1.25;font-family:&quot;Times New Roman&quot;;-inkscape-font-specification:&quot;Times New Roman, &quot;;fill:#565656;fill-opacity:1;stroke:none;stroke-width:.264583"/><path d="M0 8.232h10V10H0z" style="fill:#4681c2;fill-opacity:1;stroke:none;stroke-width:.133545;stroke-linecap:round;stroke-linejoin:round;paint-order:fill markers stroke"/></svg>