<svg xmlns="http://www.w3.org/2000/svg" width="10mm" height="10mm" viewBox="0 0 10 10"><path d="M6.253 4.788q.998.233 1.4.563.58.47.58 1.22 0 .79-.636 1.307-.78.626-2.269.626h-3.56v-.192q.485 0 .656-.087.176-.093.243-.238.072-.145.072-.713V2.726q0-.568-.072-.713-.067-.15-.243-.238-.176-.087-.656-.087v-.192h3.359q1.204 0 1.705.217.501.212.79.641.29.424.29.905 0 .506-.367.904-.367.393-1.292.625m-1.88-.14q.733 0 1.08-.165.35-.165.537-.465.186-.3.186-.765t-.186-.76q-.181-.299-.522-.454t-1.096-.15Zm0 .404V7.3l-.006.258q0 .279.14.424.144.14.423.14.414 0 .76-.182.351-.186.537-.532.186-.351.186-.78 0-.491-.227-.879-.227-.392-.625-.547t-1.189-.15" aria-label="B" style="font-weight:700;font-size:10.5833px;line-height:1.25;font-family:&quot;Times New Roman&quot;;-inkscape-font-specification:&quot;Times New Roman, &quot;;fill:#565656;fill-opacity:1;stroke:none;stroke-width:.264583;stroke-opacity:1"/></svg>