<svg xmlns="http://www.w3.org/2000/svg" width="10mm" height="10mm" viewBox="0 0 10 10"><path d="M6.312 1.605v-.191h2.48v.19h-.264q-.413 0-.635.347-.109.16-.109.744v2.842q0 1.055-.212 1.639-.206.578-.821.997-.61.413-1.664.413-1.147 0-1.742-.398-.594-.397-.842-1.07-.165-.46-.165-1.725v-2.74q0-.645-.181-.847-.176-.201-.574-.201H1.32v-.191h3.028v.19h-.269q-.434 0-.62.275-.13.186-.13.775v3.054q0 .408.073.935.078.527.274.822t.563.486q.372.19.91.19.687 0 1.23-.299.542-.3.739-.765.201-.47.201-1.586V2.654q0-.656-.144-.822-.202-.227-.6-.227z" aria-label="U" style="font-size:10.5833px;line-height:1.25;font-family:&quot;Times New Roman&quot;;-inkscape-font-specification:&quot;Times New Roman, &quot;;fill:#565656;fill-opacity:1;stroke:none;stroke-width:.264583"/><path d="M1.32 9.7h7.472" style="fill:none;stroke:#565656;stroke-width:.6;stroke-linecap:butt;stroke-linejoin:miter;stroke-dasharray:none;stroke-opacity:1"/></svg>