<svg xmlns="http://www.w3.org/2000/svg" width="10mm" height="10mm" viewBox="0 0 10 10"><path d="M2.252 4.923v1.735q0 .43.045.537.05.108.186.19.14.079.376.079h.186v.153H.115v-.153h.187q.243 0 .392-.087.108-.058.165-.198.046-.1.046-.52V2.971q0-.43-.046-.537-.045-.107-.186-.186-.136-.082-.371-.082H.116v-.153h2.93v.153h-.187q-.244 0-.392.087-.108.057-.17.198-.045.099-.045.52V4.56H4.23V2.972q0-.43-.045-.537T4 2.25q-.14-.082-.376-.082h-.182v-.153h2.925v.153h-.182q-.248 0-.392.087-.108.057-.17.198-.045.099-.045.52v3.686q0 .43.045.537.046.108.186.19.14.079.376.079h.182v.153H3.442v-.153h.182q.248 0 .392-.087.108-.058.17-.198.045-.1.045-.52V4.922Zm5.52-.116v-.145q.471-.136.653-.252.182-.12.314-.36.132-.243.132-.49 0-.344-.252-.588-.248-.247-.62-.247-.578 0-.983.611l-.153-.054q.297-.69.76-1.037.467-.347 1.037-.347.583 0 .959.356.38.355.38.83 0 .31-.178.6-.173.284-.55.503.484.236.736.583.256.343.256.863 0 .876-.636 1.492-.632.611-1.698.611-.71 0-1.037-.235-.236-.165-.236-.426 0-.19.137-.322.136-.136.314-.136.136 0 .256.058.066.033.467.363.405.327.756.327.306 0 .525-.24.219-.244.219-.616 0-.566-.397-1.04-.397-.48-1.161-.662" aria-label="H3" style="font-weight:700;font-size:8.462px;line-height:1.25;font-family:&quot;Times New Roman&quot;;-inkscape-font-specification:&quot;Times New Roman, &quot;;fill:#565656;stroke-width:.211551;stroke:none" transform="scale(.96347 1.03792)"/></svg>