<svg xmlns="http://www.w3.org/2000/svg" width="10mm" height="10mm" viewBox="0 0 10 10"><path d="M6.863 1.336V3.76h-.191q-.093-.698-.336-1.111-.238-.414-.682-.657-.445-.242-.92-.242-.538 0-.889.33-.351.326-.351.744 0 .32.222.584.32.388 1.524 1.034.982.527 1.339.811.361.28.553.662.196.382.196.8 0 .796-.62 1.375-.615.574-1.587.574-.304 0-.573-.047-.16-.025-.667-.186-.501-.165-.635-.165-.13 0-.207.077-.072.078-.109.32h-.19V6.262h.19q.135.754.362 1.132.227.372.693.62.47.248 1.028.248.646 0 1.018-.341.377-.341.377-.806 0-.259-.145-.522-.139-.264-.439-.491-.201-.155-1.1-.657-.9-.506-1.282-.806-.377-.3-.574-.661t-.196-.796q0-.754.579-1.297.579-.548 1.473-.548.558 0 1.183.274.29.13.408.13.135 0 .217-.078.088-.083.14-.326z" aria-label="S" style="font-size:10.5833px;line-height:1.25;font-family:&quot;Times New Roman&quot;;-inkscape-font-specification:&quot;Times New Roman, &quot;;fill:#565656;fill-opacity:1;stroke:none;stroke-width:.264583"/><path d="M.802 5H9.31" style="fill:none;stroke:#565656;stroke-width:.6;stroke-linecap:butt;stroke-linejoin:miter;stroke-dasharray:none;stroke-opacity:1"/></svg>