<svg xmlns="http://www.w3.org/2000/svg" width="10mm" height="10mm" viewBox="0 0 10 10"><path d="m5.605 8.312-.057.192H2.664l.073-.192q.434-.01.573-.072.228-.088.336-.243.17-.243.351-.868l1.22-4.227q.155-.527.155-.796 0-.134-.067-.227t-.207-.14q-.134-.051-.532-.051l.062-.192h2.708l-.057.192q-.33-.006-.491.072-.233.103-.357.294-.118.192-.31.848L4.907 7.129q-.165.584-.165.744 0 .13.062.222.067.088.206.14.145.046.595.077" aria-label="I" style="font-style:italic;font-size:10.5833px;line-height:1.25;font-family:&quot;Times New Roman&quot;;-inkscape-font-specification:&quot;Times New Roman, &quot;;fill:#565656;fill-opacity:1;stroke:none;stroke-width:.265;stroke-dasharray:none"/></svg>