<svg xmlns="http://www.w3.org/2000/svg" width="10mm" height="10mm" viewBox="0 0 10 10"><path d="M9.566 7.564q-.05-.079-.246-.05-.187.02-.413.138l-.334.168-.06-.01q-.068-.02-.137-.07-.059-.048-.088-.137-.256-.717-.364-1.543-.128-1.013-.197-2.035-.069-1.032-.088-2.074l-.01-.738q0-.039-.01-.049-.04-.069-.157-.069h-.01q-.108 0-.265.05-.158.049-.325.147-.226.138-.373.285-.138.148-.138.256v.118h-.167Q5.112 3.956 3.628 5.863q-.256.335-.501.64-.246.304-.482.54-.226.236-.433.373-.206.128-.383.109-.275-.03-.482-.187-.118-.098-.177-.187-.049-.088-.059-.138-.02-.127-.088-.157-.108-.04-.246.138-.138.167-.246.452-.069.187-.098.354-.02.157 0 .265.03.207.138.354.108.148.226.246.128.098.275.157.147.06.315.079.265.03.57-.177.304-.206.61-.511.314-.315.589-.669.285-.363.511-.639l.079-.098q.02 0 .04.01h2.869q.119.786.364 1.474.089.276.413.354.167.05.403.02l.079-.02.128-.03q.049-.009.098-.029.06-.02.108-.039l.138-.05.128-.058.452-.236.098-.05q.266-.137.403-.314.148-.177.099-.275zM6.557 5.962H4.75q-.089 0-.217.039-.127.03-.265.108 1.14-1.573 2.094-3.323.02.806.069 1.593t.127 1.583z" aria-label="A" style="font-weight:700;font-size:10.5833px;line-height:1.25;font-family:&quot;Euclid Math One&quot;;-inkscape-font-specification:&quot;Euclid Math One Bold&quot;;fill:#4681c2;fill-opacity:1;stroke:#4681c2;stroke-width:.317688;stroke-dasharray:none;stroke-opacity:1"/></svg>