<svg xmlns="http://www.w3.org/2000/svg" width="10mm" height="10mm" viewBox="0 0 10 10"><path d="M2.332 4.983v1.735q0 .43.046.537.05.108.186.19.14.079.376.079h.186v.153H.196v-.153h.186q.244 0 .393-.087.107-.058.165-.198.045-.1.045-.521V3.032q0-.43-.045-.537T.754 2.31q-.136-.082-.372-.082H.196v-.153h2.93v.153H2.94q-.244 0-.393.086-.107.058-.17.199-.045.099-.045.52V4.62h1.98V3.032q0-.43-.046-.537-.045-.107-.186-.186-.14-.082-.376-.082h-.182v-.153h2.926v.153h-.182q-.248 0-.393.086-.107.058-.169.199-.045.099-.045.52v3.686q0 .43.045.537t.186.19q.14.079.376.079h.182v.153H3.522v-.153h.182q.248 0 .393-.087.107-.058.17-.198.045-.1.045-.521V4.983zm7.025-3.025V6.54q0 .517.045.661.045.14.19.232.145.09.463.09h.128v.154h-2.95v-.153h.149q.359 0 .512-.083t.206-.227.054-.674V3.636q0-.389-.037-.484-.037-.099-.14-.165-.1-.07-.232-.07-.21 0-.512.132L7.158 2.9l2.062-.942Z" aria-label="H1" style="font-weight:700;font-size:8.462px;line-height:1.25;font-family:&quot;Times New Roman&quot;;-inkscape-font-specification:&quot;Times New Roman, &quot;;fill:#565656;stroke-width:.211551;stroke:none" transform="scale(.96347 1.03792)"/></svg>