<svg xmlns="http://www.w3.org/2000/svg" width="10mm" height="10mm" viewBox="0 0 10 10"><path d="M3.36 1.496h2.77q.924 0 1.322.099.522.124.806.485.29.357.29.812 0 .372-.228.76-.227.387-.682.64-.45.248-1.385.46.972.274 1.349.703t.377.997q0 .532-.372 1.054-.372.517-.987.76-.615.238-2.253.238H1.452l.068-.192q.423 0 .604-.077.186-.078.295-.238.113-.165.263-.682l1.25-4.31q.192-.656.192-.878 0-.181-.155-.3-.15-.119-.661-.14Zm1.586 3.096q.703-.01 1.106-.222.408-.212.65-.693.249-.486.249-.915 0-.403-.253-.656-.254-.253-.677-.243l-.285.01zm-.124.387-.894 3.116q.258.01.387.01 1.153 0 1.602-.64.45-.646.45-1.38 0-.351-.176-.62-.17-.274-.444-.377-.274-.109-.925-.109" aria-label="B" style="-inkscape-font-specification:&quot;Times New Roman, &quot;;fill:#565656;fill-opacity:1;stroke:none;stroke-width:.265;stroke-dasharray:none"/></svg>