<svg xmlns="http://www.w3.org/2000/svg" width="10mm" height="10mm" viewBox="0 0 10 10"><path d="M2.136 4.925V6.66q0 .43.046.537.05.108.186.19.14.079.376.079h.185v.153H0v-.153h.186q.244 0 .392-.087.108-.058.166-.198.045-.1.045-.52V2.974q0-.43-.045-.538-.046-.107-.186-.186-.138-.08-.372-.08H0v-.153h2.93v.153h-.186q-.244 0-.393.087-.107.057-.17.198-.045.1-.045.52v1.587h1.98V2.975q0-.43-.046-.538-.046-.107-.186-.186-.14-.082-.376-.082h-.182v-.153h2.925v.153H6.07q-.248 0-.393.087-.107.057-.17.198-.045.1-.045.52V6.66q0 .43.046.537.045.108.186.19.14.079.376.079h.181v.153H3.326v-.153h.182q.248 0 .392-.087.108-.058.17-.198.045-.1.045-.52V4.924ZM10.38 1.9v.116q-.748.19-1.202.492-.45.297-.715.727-.26.425-.405 1.058.182-.124.302-.162.268-.082.541-.082.628 0 1.045.458.422.455.422 1.244 0 .554-.227 1.017-.228.462-.645.714t-.893.252q-.516 0-.954-.28-.438-.286-.686-.831-.244-.545-.244-1.186 0-.942.45-1.752.455-.814 1.286-1.293.834-.483 1.925-.492M8.003 4.627q-.033.57-.033.835 0 .57.108 1.103.111.533.301.748.137.153.323.153.19 0 .338-.22.15-.222.15-.9 0-1.14-.278-1.574-.177-.281-.479-.281-.165 0-.43.136" aria-label="H6" style="font-weight:700;font-size:8.462px;line-height:1.25;font-family:&quot;Times New Roman&quot;;-inkscape-font-specification:&quot;Times New Roman, &quot;;fill:#565656;stroke-width:.211551;stroke:none" transform="scale(.96347 1.03792)"/></svg>