<svg xmlns="http://www.w3.org/2000/svg" width="10mm" height="10mm" viewBox="0 0 10 10"><path d="M3.22 1.6h6.172M3.22 5h6.172M3.22 8.4h6.172" style="fill:none;stroke:#565656;stroke-width:.686228;stroke-linecap:butt;stroke-linejoin:miter;stroke-dasharray:none;stroke-opacity:1"/><path d="M-4.682-2.851h1.609v1.609h-1.609z" style="fill:#4681c2;stroke:none;stroke-width:.7;stroke-linecap:round;stroke-linejoin:round;paint-order:fill markers stroke"/><path d="M1.83 2.987h-.613V.991q-.337.272-.793.402V.912Q.664.844.946.656q.282-.19.386-.443h.498z" aria-label="1" style="font-weight:700;font-size:2.82222px;line-height:1.25;font-family:Arial;-inkscape-font-specification:Arial;fill:#4681c2;fill-opacity:1;stroke:none;stroke-width:.389478"/><text xml:space="preserve" x="-12.061" y="-.822" style="font-size:2.82222px;line-height:1.25;font-family:Arial;-inkscape-font-specification:Arial;stroke-width:.264583"><tspan x="-12.061" y="-.822" style="font-weight:700;font-size:2.82222px;stroke-width:.264583">1</tspan></text><text xml:space="preserve" x="-10.293" y="-.822" style="font-size:2.82222px;line-height:1.25;font-family:Arial;-inkscape-font-specification:Arial;stroke-width:.264583"><tspan x="-10.293" y="-.822" style="font-weight:700;font-size:2.82222px;stroke-width:.264583">2</tspan></text><path d="M2.344 5.895v.492H.194q.035-.279.21-.527.174-.251.689-.664.415-.334.509-.452.126-.164.126-.325 0-.177-.111-.271-.11-.096-.304-.096-.192 0-.305.1-.114.1-.131.331l-.611-.052q.054-.438.342-.628t.72-.19q.474 0 .745.22.27.22.27.549 0 .186-.078.356-.076.168-.244.352-.112.123-.402.353t-.369.305q-.076.076-.124.147z" aria-label="2" style="font-weight:700;font-size:2.82222px;line-height:1.25;font-family:Arial;-inkscape-font-specification:Arial;fill:#4681c2;fill-opacity:1;stroke:none;stroke-width:.389478"/><text xml:space="preserve" x="-8.269" y="-1.032" style="font-size:2.82222px;line-height:1.25;font-family:Arial;-inkscape-font-specification:Arial;stroke-width:.264583"><tspan x="-8.269" y="-1.032" style="font-weight:700;font-size:2.82222px;stroke-width:.264583">3</tspan></text><path d="m.218 9.03.593-.062q.029.196.153.3.125.104.301.104.19 0 .32-.125.13-.124.13-.335 0-.2-.124-.317-.125-.117-.304-.117-.118 0-.281.04l.067-.432q.25.006.38-.092.131-.1.131-.264 0-.14-.096-.223t-.255-.083q-.157 0-.269.095-.111.094-.135.275L.264 7.71q.059-.25.176-.4.12-.15.332-.235.214-.087.478-.087.452 0 .725.249.225.203.225.46 0 .364-.46.58.274.051.438.229.166.177.166.427 0 .364-.308.62-.308.257-.766.257-.435 0-.72-.215-.286-.217-.332-.565" aria-label="3" style="font-weight:700;font-size:2.82222px;line-height:1.25;font-family:Arial;-inkscape-font-specification:Arial;fill:#4681c2;fill-opacity:1;stroke:none;stroke-width:.389478"/></svg>