<svg xmlns="http://www.w3.org/2000/svg" width="10mm" height="10mm" viewBox="0 0 10 10"><path d="M4.601 5.888H2.698l-.333.794q-.124.293-.124.438 0 .115.106.204.108.085.463.111v.137H1.263v-.137q.308-.055.398-.144.185-.179.41-.724l1.73-4.14h.126l1.71 4.185q.207.504.374.656.17.149.471.167v.137H4.543v-.137q.294-.015.395-.1.105-.085.105-.208 0-.163-.145-.515zM4.5 5.614 3.666 3.58 2.81 5.614Z" aria-label="A" style="font-size:10.5833px;line-height:1.25;font-family:&quot;Times New Roman&quot;;-inkscape-font-specification:&quot;Times New Roman, &quot;;fill:#565656;fill-opacity:1;stroke:none;stroke-width:.187744"/><path d="M10 6.774H6.639l1.672 3.18z" style="fill:#4681c2;fill-opacity:1;stroke:none;stroke-width:.315585px;stroke-linecap:butt;stroke-linejoin:miter;stroke-opacity:1"/></svg>