<?xml version="1.0" encoding="UTF-8" standalone="no"?>
<!-- Created with Inkscape (http://www.inkscape.org/) -->

<svg
   width="10mm"
   height="10mm"
   viewBox="0 0 10 10"
   version="1.1"
   id="svg1"
   inkscape:version="1.3.2 (091e20ef0f, 2023-11-25, custom)"
   sodipodi:docname="date.svg"
   xmlns:inkscape="http://www.inkscape.org/namespaces/inkscape"
   xmlns:sodipodi="http://sodipodi.sourceforge.net/DTD/sodipodi-0.dtd"
   xmlns="http://www.w3.org/2000/svg"
   xmlns:svg="http://www.w3.org/2000/svg">
  <sodipodi:namedview
     id="namedview1"
     pagecolor="#ffffff"
     bordercolor="#666666"
     borderopacity="1.0"
     inkscape:showpageshadow="2"
     inkscape:pageopacity="0.0"
     inkscape:pagecheckerboard="0"
     inkscape:deskcolor="#d1d1d1"
     inkscape:document-units="mm"
     inkscape:zoom="12.030079"
     inkscape:cx="21.861868"
     inkscape:cy="25.685617"
     inkscape:window-width="1920"
     inkscape:window-height="1088"
     inkscape:window-x="0"
     inkscape:window-y="40"
     inkscape:window-maximized="1"
     inkscape:current-layer="layer1"
     showguides="true" />
  <defs
     id="defs1" />
  <g
     inkscape:label="Слой 1"
     inkscape:groupmode="layer"
     id="layer1">
    <rect
       style="fill:#ffffff;stroke-width:0.600001;stroke-linecap:round;stroke-linejoin:round;paint-order:fill markers stroke;stroke:#4681c2;stroke-opacity:1;fill-opacity:1"
       id="rect2"
       width="8.5173445"
       height="8.5173445"
       x="0.79919606"
       y="0.82436496"
       ry="0.15699016" />
    <rect
       style="fill:#4681c2;fill-opacity:1;stroke:#4681c2;stroke-width:0.596507;stroke-linecap:round;stroke-linejoin:round;stroke-dasharray:none;stroke-opacity:1;paint-order:fill markers stroke"
       id="rect3"
       width="8.5188379"
       height="1.8344448"
       x="0.79844946"
       y="0.62863082"
       ry="0.033812158" />
    <path
       style="font-weight:bold;font-size:5.64164px;line-height:1.25;font-family:Arial;-inkscape-font-specification:Arial;fill:#565656;fill-opacity:1;stroke:none;stroke-width:0.120731;stroke-dasharray:none"
       d="M 4.2147906,7.60283 H 3.5630579 V 5.0625305 Q 3.2058805,5.4079536 2.7211398,5.5734689 V 4.9617821 Q 2.9762665,4.8754262 3.2754605,4.635549 3.5746545,4.3932731 3.6859825,4.0718376 H 4.2147906 Z M 6.2905941,4.0718376 q 0.494018,0 0.7723381,0.3646134 0.3316647,0.4317789 0.3316647,1.4320669 0,0.9978891 -0.333984,1.4344656 -0.2760008,0.3598158 -0.7700188,0.3598158 -0.4963374,0 -0.80017,-0.3933986 -0.3038328,-0.3957973 -0.3038328,-1.4080791 0,-0.9930917 0.3339841,-1.4296682 0.2760007,-0.3598158 0.7700187,-0.3598158 z m 0,0.5589139 q -0.118286,0 -0.2110593,0.079159 -0.092773,0.076761 -0.1437987,0.2782576 -0.067261,0.2614661 -0.067261,0.8803493 0,0.6188832 0.060302,0.8515641 0.060302,0.2302821 0.1507567,0.3070428 0.092773,0.076761 0.2110593,0.076761 0.1182861,0 0.2110594,-0.076761 0.092774,-0.079159 0.1437994,-0.2806561 0.067261,-0.2590674 0.067261,-0.8779505 0,-0.6188833 -0.060303,-0.8491653 Q 6.5921074,4.7866717 6.4993342,4.7099109 6.4088801,4.6307515 6.2905941,4.6307515 Z"
       id="text3"
       aria-label="10" />
  </g>
</svg>
