<?xml version="1.0" encoding="UTF-8" standalone="no"?>
<!-- Created with Inkscape (http://www.inkscape.org/) -->

<svg
   width="10mm"
   height="10mm"
   viewBox="0 0 10 10"
   version="1.1"
   id="svg1"
   sodipodi:docname="text_heading_3.svg"
   inkscape:version="1.3.2 (091e20ef0f, 2023-11-25, custom)"
   xmlns:inkscape="http://www.inkscape.org/namespaces/inkscape"
   xmlns:sodipodi="http://sodipodi.sourceforge.net/DTD/sodipodi-0.dtd"
   xmlns="http://www.w3.org/2000/svg"
   xmlns:svg="http://www.w3.org/2000/svg">
  <sodipodi:namedview
     id="namedview1"
     pagecolor="#ffffff"
     bordercolor="#666666"
     borderopacity="1.0"
     inkscape:showpageshadow="2"
     inkscape:pageopacity="0.0"
     inkscape:pagecheckerboard="0"
     inkscape:deskcolor="#d1d1d1"
     inkscape:document-units="mm"
     inkscape:zoom="17.013101"
     inkscape:cx="23.041067"
     inkscape:cy="18.397587"
     inkscape:window-width="1920"
     inkscape:window-height="1088"
     inkscape:window-x="0"
     inkscape:window-y="40"
     inkscape:window-maximized="1"
     inkscape:current-layer="layer1" />
  <defs
     id="defs1" />
  <g
     inkscape:label="Слой 1"
     inkscape:groupmode="layer"
     id="layer1">
    <path
       style="font-weight:bold;font-size:8.462px;line-height:1.25;font-family:'Times New Roman';-inkscape-font-specification:'Times New Roman, ';fill:#565656;stroke-width:0.211551;stroke:none"
       d="m 2.2518517,4.9227007 v 1.7353711 q 0,0.4297109 0.04545,0.5371387 0.049582,0.1074277 0.1859326,0.1900644 0.1404824,0.078505 0.375997,0.078505 H 3.0451642 V 7.6166577 H 0.11569251 V 7.4637798 h 0.18593262 q 0.24377832,0 0.39252441,-0.086768 0.10742773,-0.057846 0.16527343,-0.1983282 0.0454502,-0.099164 0.0454502,-0.5206113 V 2.9724742 q 0,-0.4297109 -0.0454502,-0.5371387 Q 0.81397278,2.3279078 0.67349036,2.2494029 0.53713977,2.1667662 0.30162513,2.1667662 H 0.11569251 V 2.0138883 H 3.0451642 V 2.1667662 H 2.8592315 q -0.2437783,0 -0.3925244,0.086769 -0.1074277,0.057846 -0.1694052,0.1983281 -0.04545,0.099164 -0.04545,0.5206113 v 1.586625 h 1.9791494 v -1.586625 q 0,-0.4297109 -0.04545,-0.5371387 Q 4.1401007,2.3279078 3.9996182,2.2494029 3.8591358,2.1667662 3.6236212,2.1667662 H 3.4418204 V 2.0138883 H 6.3671602 V 2.1667662 H 6.1853594 q -0.2479101,0 -0.3925244,0.086769 -0.1074277,0.057846 -0.1694053,0.1983281 -0.04545,0.099164 -0.04545,0.5206113 v 3.6855976 q 0,0.4297109 0.04545,0.5371387 0.04545,0.1074277 0.1859327,0.1900644 0.1404824,0.078505 0.375997,0.078505 H 6.3671602 V 7.6166577 H 3.4418204 V 7.4637798 h 0.1818008 q 0.2479101,0 0.3925244,-0.086768 0.1074277,-0.057846 0.1694053,-0.1983282 0.04545,-0.099164 0.04545,-0.5206113 V 4.9227007 Z M 7.7719844,4.8070093 V 4.6623951 Q 8.2430137,4.5260445 8.4248145,4.4103531 8.6066153,4.2905298 8.738834,4.0508834 8.8710528,3.807105 8.8710528,3.5591949 q 0,-0.3429424 -0.252042,-0.5867207 Q 8.3711006,2.724564 7.9992354,2.724564 q -0.578457,0 -0.983377,0.6115118 L 6.8629805,3.2823619 Q 7.1604727,2.5923453 7.6232383,2.2452711 8.0901358,1.8981969 8.6603291,1.8981969 q 0.5825889,0 0.9585859,0.3553379 0.3801289,0.3553378 0.3801289,0.830499 0,0.3098877 -0.1776689,0.5991162 -0.1735371,0.2850966 -0.5495342,0.5040839 0.4834248,0.2355147 0.7354672,0.5825889 0.256173,0.3429424 0.256173,0.8635537 0,0.8759492 -0.6363023,1.4915928 -0.6321709,0.6115117 -1.6981845,0.6115117 -0.7106758,0 -1.0370908,-0.2355147 -0.2355147,-0.1652734 -0.2355147,-0.4255791 0,-0.1900644 0.1363506,-0.3222832 0.1363506,-0.1363506 0.3140195,-0.1363506 0.1363506,0 0.2561739,0.057846 0.066109,0.033055 0.4668974,0.3636015 0.4049199,0.326415 0.756126,0.326415 0.3057558,0 0.5247431,-0.2396464 0.2189873,-0.2437784 0.2189873,-0.6156436 0,-0.5660615 -0.3966562,-1.0412226 Q 8.536374,4.9888101 7.7719844,4.8070093 Z"
       id="text2"
       transform="scale(0.96346781,1.0379174)"
       aria-label="H3" />
  </g>
</svg>
