<?xml version="1.0" encoding="UTF-8" standalone="no"?>
<!-- Created with Inkscape (http://www.inkscape.org/) -->

<svg
   width="10mm"
   height="10mm"
   viewBox="0 0 10 10"
   version="1.1"
   id="svg1"
   inkscape:version="1.3.2 (091e20ef0f, 2023-11-25, custom)"
   sodipodi:docname="text_style.svg"
   xmlns:inkscape="http://www.inkscape.org/namespaces/inkscape"
   xmlns:sodipodi="http://sodipodi.sourceforge.net/DTD/sodipodi-0.dtd"
   xmlns="http://www.w3.org/2000/svg"
   xmlns:svg="http://www.w3.org/2000/svg">
  <sodipodi:namedview
     id="namedview1"
     pagecolor="#ffffff"
     bordercolor="#666666"
     borderopacity="1.0"
     inkscape:showpageshadow="2"
     inkscape:pageopacity="0.0"
     inkscape:pagecheckerboard="0"
     inkscape:deskcolor="#d1d1d1"
     inkscape:document-units="mm"
     inkscape:zoom="12.030079"
     inkscape:cx="35.411239"
     inkscape:cy="9.8918719"
     inkscape:window-width="1920"
     inkscape:window-height="1088"
     inkscape:window-x="0"
     inkscape:window-y="40"
     inkscape:window-maximized="1"
     inkscape:current-layer="layer1"
     showguides="true" />
  <defs
     id="defs1" />
  <g
     inkscape:label="Слой 1"
     inkscape:groupmode="layer"
     id="layer1">
    <path
       style="font-weight:bold;font-size:10.5833px;line-height:1.25;font-family:'Euclid Math One';-inkscape-font-specification:'Euclid Math One Bold';fill:#4681c2;fill-opacity:1;stroke:#4681c2;stroke-width:0.317688;stroke-dasharray:none;stroke-opacity:1"
       d="M 9.5655718,7.5639474 Q 9.5164185,7.4853033 9.3198081,7.5147942 9.1330274,7.5344556 8.9069244,7.652422 L 8.5726852,7.8195416 8.5137012,7.8097144 Q 8.4448878,7.7900497 8.3760738,7.7408974 8.3170901,7.691745 8.2875983,7.6032696 8.0320037,6.8856384 7.9238674,6.059871 7.7960701,5.0473228 7.7272562,4.0249441 7.6584423,2.9927351 7.6387808,1.9506951 l -0.00983,-0.7372919 q 0,-0.039319 -0.00983,-0.049156 -0.039322,-0.068811 -0.157289,-0.068811 h -0.00983 q -0.1081361,0 -0.2654252,0.049156 -0.15729,0.049156 -0.3244095,0.1474591 -0.226103,0.1376277 -0.3735615,0.2850866 -0.1376279,0.147458 -0.1376279,0.255594 V 1.9506988 H 6.1838581 Q 5.1123266,3.9561339 3.6279115,5.8632633 3.3723167,6.1975025 3.1265526,6.50225 2.8807885,6.8069975 2.644855,7.0429311 2.418752,7.2788646 2.2123102,7.4164926 2.0058684,7.5442899 1.8289182,7.5246287 1.5536624,7.495137 1.3472207,7.337848 1.2292539,7.2395424 1.1702705,7.1510673 1.121118,7.062592 1.1112869,7.0134394 1.0916254,6.8856421 1.0228115,6.8561504 0.9146753,6.8168283 0.77704734,6.9937783 0.63941949,7.1608979 0.53128329,7.4459842 0.46246949,7.632765 0.43297769,7.7998845 q -0.0196615,0.157289 0,0.2654252 0.0294918,0.2064419 0.13762791,0.3539004 0.1081362,0.1474585 0.22610296,0.2457641 0.12779732,0.098305 0.27525584,0.157289 0.1474584,0.058984 0.3145781,0.078644 Q 1.6519677,8.9303988 1.9567152,8.7239571 2.2614626,8.5175153 2.56621,8.2127678 2.8807881,7.8981897 3.1560439,7.5442896 3.4411302,7.1805587 3.6672332,6.9053028 l 0.078644,-0.098305 q 0.019662,0 0.039322,0.00983 0.019662,0 0.039322,0 H 6.655724 q 0.1179668,0.7864452 0.3637309,1.4745845 0.088475,0.2752559 0.4128837,0.3539004 0.1671197,0.049153 0.4030531,0.019662 l 0.078645,-0.019662 0.1277973,-0.029492 q 0.049153,-0.00983 0.098305,-0.029492 0.058984,-0.019662 0.1081363,-0.039322 l 0.1376278,-0.049153 0.1277974,-0.058984 0.452206,-0.2359336 0.098305,-0.049153 q 0.2654271,-0.1376299 0.4030551,-0.31458 0.1474585,-0.17695 0.098305,-0.2752557 z M 6.5574196,5.9615653 H 4.7485957 q -0.088475,0 -0.2162724,0.039322 -0.1277974,0.029492 -0.2654253,0.1081365 1.1403456,-1.5728902 2.0939103,-3.3227301 0.019662,0.8061057 0.068814,1.5925509 0.049153,0.7864451 0.1277973,1.5827207 z"
       id="text1"
       aria-label="A" />
  </g>
</svg>
