<?xml version="1.0" encoding="UTF-8" standalone="no"?>
<!-- Created with Inkscape (http://www.inkscape.org/) -->

<svg
   width="10mm"
   height="10mm"
   viewBox="0 0 10 10"
   version="1.1"
   id="svg1"
   sodipodi:docname="text_italic.svg"
   inkscape:version="1.3.2 (091e20ef0f, 2023-11-25, custom)"
   xmlns:inkscape="http://www.inkscape.org/namespaces/inkscape"
   xmlns:sodipodi="http://sodipodi.sourceforge.net/DTD/sodipodi-0.dtd"
   xmlns="http://www.w3.org/2000/svg"
   xmlns:svg="http://www.w3.org/2000/svg">
  <sodipodi:namedview
     id="namedview1"
     pagecolor="#ffffff"
     bordercolor="#666666"
     borderopacity="1.0"
     inkscape:showpageshadow="2"
     inkscape:pageopacity="0.0"
     inkscape:pagecheckerboard="0"
     inkscape:deskcolor="#d1d1d1"
     inkscape:document-units="mm"
     inkscape:zoom="8.5065504"
     inkscape:cx="12.108316"
     inkscape:cy="25.744866"
     inkscape:window-width="1920"
     inkscape:window-height="1088"
     inkscape:window-x="0"
     inkscape:window-y="40"
     inkscape:window-maximized="1"
     inkscape:current-layer="layer1" />
  <defs
     id="defs1" />
  <g
     inkscape:label="Слой 1"
     inkscape:groupmode="layer"
     id="layer1">
    <path
       style="font-style:italic;font-size:10.5833px;line-height:1.25;font-family:'Times New Roman';-inkscape-font-specification:'Times New Roman, ';fill:#565656;fill-opacity:1;stroke:none;stroke-width:0.265;stroke-dasharray:none"
       d="m 5.6046122,8.3124486 -0.056844,0.1912022 h -2.883536 l 0.07235,-0.1912022 Q 3.1706629,8.3021136 3.3101888,8.2401016 3.5375644,8.1522516 3.6460845,7.9972232 3.8166133,7.7543449 3.9974803,7.1290621 L 5.2170402,2.9019434 Q 5.372069,2.3748455 5.372069,2.1061289 5.372069,1.9717706 5.30489,1.8787533 5.237711,1.7857363 5.098185,1.7392274 4.9638267,1.6875514 4.5659194,1.6875514 L 4.6279314,1.4963492 H 7.3357679 L 7.2789239,1.6875514 Q 6.9481958,1.6823814 6.7879993,1.7598984 6.5554561,1.8632509 6.4314331,2.0544531 6.3125777,2.2456553 6.1213755,2.9019439 L 4.9069826,7.1290621 q -0.1653641,0.5839418 -0.1653641,0.7441382 0,0.1291907 0.062012,0.222208 0.067179,0.08785 0.2067051,0.1395259 0.1446936,0.046509 0.5942766,0.077514 z"
       id="text2"
       aria-label="I" />
  </g>
</svg>
