<?xml version="1.0" encoding="UTF-8" standalone="no"?>
<!-- Created with Inkscape (http://www.inkscape.org/) -->

<svg
   width="10mm"
   height="10mm"
   viewBox="0 0 10 10"
   version="1.1"
   id="svg1"
   sodipodi:docname="text_heading_6.svg"
   inkscape:version="1.3.2 (091e20ef0f, 2023-11-25, custom)"
   xmlns:inkscape="http://www.inkscape.org/namespaces/inkscape"
   xmlns:sodipodi="http://sodipodi.sourceforge.net/DTD/sodipodi-0.dtd"
   xmlns="http://www.w3.org/2000/svg"
   xmlns:svg="http://www.w3.org/2000/svg">
  <sodipodi:namedview
     id="namedview1"
     pagecolor="#ffffff"
     bordercolor="#666666"
     borderopacity="1.0"
     inkscape:showpageshadow="2"
     inkscape:pageopacity="0.0"
     inkscape:pagecheckerboard="0"
     inkscape:deskcolor="#d1d1d1"
     inkscape:document-units="mm"
     inkscape:zoom="17.013101"
     inkscape:cx="23.041067"
     inkscape:cy="18.397587"
     inkscape:window-width="1920"
     inkscape:window-height="1088"
     inkscape:window-x="0"
     inkscape:window-y="40"
     inkscape:window-maximized="1"
     inkscape:current-layer="layer1" />
  <defs
     id="defs1" />
  <g
     inkscape:label="Слой 1"
     inkscape:groupmode="layer"
     id="layer1">
    <path
       style="font-weight:bold;font-size:8.462px;line-height:1.25;font-family:'Times New Roman';-inkscape-font-specification:'Times New Roman, ';fill:#565656;stroke-width:0.211551;stroke:none"
       d="m 2.1361602,4.9247669 v 1.735371 q 0,0.429711 0.04545,0.5371387 0.049582,0.1074277 0.1859326,0.1900645 0.1404824,0.078505 0.3759971,0.078505 h 0.1859326 v 0.152878 H 1.0570511e-6 V 7.4658459 H 0.18593367 q 0.24377832,0 0.39252441,-0.086768 0.10742773,-0.057846 0.16527344,-0.1983281 0.0454502,-0.099164 0.0454502,-0.5206114 V 2.9745403 q 0,-0.4297109 -0.0454502,-0.5371386 Q 0.69828132,2.3299739 0.5577989,2.2514691 0.42144832,2.1688323 0.18593367,2.1688323 H 1.0570511e-6 V 2.0159544 H 2.9294727 V 2.1688323 H 2.7435401 q -0.2437783,0 -0.3925244,0.086769 -0.1074278,0.057846 -0.1694053,0.1983281 -0.04545,0.099164 -0.04545,0.5206113 v 1.586625 h 1.9791494 v -1.586625 q 0,-0.4297109 -0.04545,-0.5371386 Q 4.0244092,2.3299739 3.8839268,2.2514691 3.7434444,2.1688323 3.5079297,2.1688323 H 3.3261289 V 2.0159544 H 6.2514688 V 2.1688323 H 6.069668 q -0.2479102,0 -0.3925244,0.086769 -0.1074278,0.057846 -0.1694053,0.1983281 -0.04545,0.099164 -0.04545,0.5206113 v 3.6855976 q 0,0.429711 0.04545,0.5371387 0.04545,0.1074277 0.1859326,0.1900645 0.1404824,0.078505 0.3759971,0.078505 h 0.1818008 v 0.152878 H 3.3261289 v -0.152878 h 0.1818008 q 0.2479102,0 0.3925244,-0.086768 0.1074278,-0.057846 0.1694053,-0.1983281 0.04545,-0.099164 0.04545,-0.5206114 V 4.9247669 Z M 10.379173,1.900263 V 2.0159544 Q 9.6313105,2.2060189 9.1768086,2.5076429 8.7264384,2.8051351 8.4620009,3.234846 8.2016953,3.6604251 8.057081,4.292596 8.2388818,4.1686409 8.358705,4.1314544 q 0.2685694,-0.082637 0.5412705,-0.082637 0.6280391,0 1.0453545,0.4586337 0.421447,0.454502 0.421447,1.2436826 0,0.5536661 -0.227251,1.0164317 -0.2272507,0.4627656 -0.6445661,0.7148076 -0.4173154,0.252042 -0.8924765,0.252042 -0.5164795,0 -0.9544541,-0.2809649 Q 7.2100547,7.1683538 6.9621445,6.6229514 6.7183662,6.0775491 6.7183662,5.4371145 q 0,-0.9420586 0.4503701,-1.7518984 Q 7.6232383,2.8712444 8.4537373,2.3919515 9.2883681,1.9085267 10.379173,1.900263 Z M 8.0033672,4.6272747 q -0.033055,0.5701933 -0.033055,0.8346308 0,0.5701934 0.1074277,1.1032002 0.1115596,0.5330068 0.301624,0.7478623 0.1363506,0.1528779 0.3222832,0.1528779 0.1900645,0 0.3388106,-0.2189873 0.1487461,-0.2231191 0.1487461,-0.9007402 0,-1.1403867 -0.276833,-1.5742295 -0.177669,-0.2809648 -0.479293,-0.2809648 -0.1652734,0 -0.4297109,0.1363506 z"
       id="text2"
       transform="scale(0.96346781,1.0379174)"
       aria-label="H6" />
  </g>
</svg>
