<?xml version="1.0" encoding="UTF-8" standalone="no"?>
<!-- Created with Inkscape (http://www.inkscape.org/) -->

<svg
   width="10mm"
   height="10mm"
   viewBox="0 0 10 10"
   version="1.1"
   id="svg1"
   sodipodi:docname="text_heading_5.svg"
   inkscape:version="1.3.2 (091e20ef0f, 2023-11-25, custom)"
   xmlns:inkscape="http://www.inkscape.org/namespaces/inkscape"
   xmlns:sodipodi="http://sodipodi.sourceforge.net/DTD/sodipodi-0.dtd"
   xmlns="http://www.w3.org/2000/svg"
   xmlns:svg="http://www.w3.org/2000/svg">
  <sodipodi:namedview
     id="namedview1"
     pagecolor="#ffffff"
     bordercolor="#666666"
     borderopacity="1.0"
     inkscape:showpageshadow="2"
     inkscape:pageopacity="0.0"
     inkscape:pagecheckerboard="0"
     inkscape:deskcolor="#d1d1d1"
     inkscape:document-units="mm"
     inkscape:zoom="17.013101"
     inkscape:cx="23.041067"
     inkscape:cy="18.397587"
     inkscape:window-width="1920"
     inkscape:window-height="1088"
     inkscape:window-x="0"
     inkscape:window-y="40"
     inkscape:window-maximized="1"
     inkscape:current-layer="layer1" />
  <defs
     id="defs1" />
  <g
     inkscape:label="Слой 1"
     inkscape:groupmode="layer"
     id="layer1">
    <path
       style="font-weight:bold;font-size:8.462px;line-height:1.25;font-family:'Times New Roman';-inkscape-font-specification:'Times New Roman, ';fill:#565656;stroke-width:0.211551;stroke:none"
       d="m 2.1361602,4.9247669 v 1.735371 q 0,0.429711 0.04545,0.5371387 0.049582,0.1074277 0.1859326,0.1900645 0.1404824,0.078505 0.3759971,0.078505 h 0.1859326 v 0.152878 H 1.0570511e-6 V 7.4658459 H 0.18593367 q 0.24377832,0 0.39252441,-0.086768 0.10742773,-0.057846 0.16527344,-0.1983281 0.0454502,-0.099164 0.0454502,-0.5206114 V 2.9745403 q 0,-0.4297109 -0.0454502,-0.5371386 Q 0.69828132,2.3299739 0.5577989,2.2514691 0.42144832,2.1688323 0.18593367,2.1688323 H 1.0570511e-6 V 2.0159544 H 2.9294727 V 2.1688323 H 2.7435401 q -0.2437783,0 -0.3925244,0.086769 -0.1074278,0.057846 -0.1694053,0.1983281 -0.04545,0.099164 -0.04545,0.5206113 v 1.586625 h 1.9791494 v -1.586625 q 0,-0.4297109 -0.04545,-0.5371386 Q 4.0244092,2.3299739 3.8839268,2.2514691 3.7434444,2.1688323 3.5079297,2.1688323 H 3.3261289 V 2.0159544 H 6.2514688 V 2.1688323 H 6.069668 q -0.2479102,0 -0.3925244,0.086769 -0.1074278,0.057846 -0.1694053,0.1983281 -0.04545,0.099164 -0.04545,0.5206113 v 3.6855976 q 0,0.429711 0.04545,0.5371387 0.04545,0.1074277 0.1859326,0.1900645 0.1404824,0.078505 0.3759971,0.078505 h 0.1818008 v 0.152878 H 3.3261289 v -0.152878 h 0.1818008 q 0.2479102,0 0.3925244,-0.086768 0.1074278,-0.057846 0.1694053,-0.1983281 0.04545,-0.099164 0.04545,-0.5206114 V 4.9247669 Z M 7.6934795,2.0159544 H 10.317195 L 9.8998798,3.0819681 H 7.6934795 L 7.4827558,3.6397659 q 1.4254834,0.053714 2.1940049,0.7106758 0.6321713,0.5412705 0.6321713,1.3469785 0,0.5164795 -0.293361,1.0122998 -0.2933601,0.4916884 -0.8263669,0.7602578 -0.5330069,0.2644375 -1.1693096,0.2644375 -0.6858848,0 -1.0536181,-0.2561739 -0.2561739,-0.1818007 -0.2561739,-0.4131835 0,-0.177669 0.1322188,-0.3140196 0.1363506,-0.1363506 0.3140195,-0.1363506 0.1611416,0 0.326415,0.066109 0.1652735,0.066109 0.5660616,0.3470742 0.2520419,0.1735371 0.4338427,0.2396465 0.1280869,0.049582 0.2892285,0.049582 0.3388106,0 0.5743252,-0.2479101 0.2396465,-0.2479102 0.2396465,-0.5949844 0,-0.7272031 -0.7272031,-1.181705 -0.7272031,-0.454502 -1.8345351,-0.454502 -0.1115596,0 -0.3346787,0.00413 z"
       id="text2"
       transform="scale(0.96346781,1.0379174)"
       aria-label="H5" />
  </g>
</svg>
