<?xml version="1.0" encoding="UTF-8" standalone="no"?>
<!-- Created with Inkscape (http://www.inkscape.org/) -->

<svg
   width="10mm"
   height="10mm"
   viewBox="0 0 10 10"
   version="1.1"
   id="svg1"
   inkscape:version="1.3.2 (091e20ef0f, 2023-11-25, custom)"
   sodipodi:docname="text_big.svg"
   xmlns:inkscape="http://www.inkscape.org/namespaces/inkscape"
   xmlns:sodipodi="http://sodipodi.sourceforge.net/DTD/sodipodi-0.dtd"
   xmlns="http://www.w3.org/2000/svg"
   xmlns:svg="http://www.w3.org/2000/svg">
  <sodipodi:namedview
     id="namedview1"
     pagecolor="#ffffff"
     bordercolor="#666666"
     borderopacity="1.0"
     inkscape:showpageshadow="2"
     inkscape:pageopacity="0.0"
     inkscape:pagecheckerboard="0"
     inkscape:deskcolor="#d1d1d1"
     inkscape:document-units="mm"
     inkscape:zoom="8.5065504"
     inkscape:cx="13.518993"
     inkscape:cy="15.28234"
     inkscape:window-width="1920"
     inkscape:window-height="1088"
     inkscape:window-x="0"
     inkscape:window-y="40"
     inkscape:window-maximized="1"
     inkscape:current-layer="layer1"
     showguides="true" />
  <defs
     id="defs1" />
  <g
     inkscape:label="Слой 1"
     inkscape:groupmode="layer"
     id="layer1">
    <path
       style="font-size:10.5833px;line-height:1.25;font-family:'Times New Roman';-inkscape-font-specification:'Times New Roman, ';fill:#565656;fill-opacity:1;stroke:none;stroke-width:0.289545"
       d="M 4.9120581,6.5538911 H 2.1990541 L 1.7236324,7.8782764 Q 1.5479331,8.367185 1.5479331,8.6085449 q 0,0.1918503 0.1498612,0.3403795 0.1550288,0.1423405 0.6614562,0.1856615 V 9.3635684 H 0.15267391 V 9.1345859 q 0.4392482,-0.09283 0.5684389,-0.24136 Q 0.9846618,8.5961675 1.3050546,7.6864262 L 3.7700126,0.779819 h 0.180867 L 6.3899994,7.7606908 Q 6.6845541,8.6023563 6.9222649,8.8560937 7.1651434,9.1036422 7.5940564,9.1345859 V 9.3635684 H 4.8293761 V 9.1345859 Q 5.2479539,9.1098304 5.3926474,8.9674905 5.5425086,8.82515 5.5425086,8.6209223 q 0,-0.2723036 -0.2067051,-0.8602316 z M 4.7673646,6.0959262 3.5788104,2.70451 2.3592505,6.0959262 Z"
       id="text1"
       aria-label="A" />
    <path
       style="fill:#4681c2;fill-opacity:1;stroke:none;stroke-width:0.315585px;stroke-linecap:butt;stroke-linejoin:miter;stroke-opacity:1"
       d="M 6.6387111,3.2904272 H 10 L 8.3277627,0.10968665 Z"
       id="path6" />
  </g>
</svg>
