<?xml version="1.0" encoding="UTF-8" standalone="no"?>
<!-- Created with Inkscape (http://www.inkscape.org/) -->

<svg
   width="10mm"
   height="10mm"
   viewBox="0 0 10 10"
   version="1.1"
   id="svg1"
   sodipodi:docname="text_heading_2.svg"
   inkscape:version="1.3.2 (091e20ef0f, 2023-11-25, custom)"
   xmlns:inkscape="http://www.inkscape.org/namespaces/inkscape"
   xmlns:sodipodi="http://sodipodi.sourceforge.net/DTD/sodipodi-0.dtd"
   xmlns="http://www.w3.org/2000/svg"
   xmlns:svg="http://www.w3.org/2000/svg">
  <sodipodi:namedview
     id="namedview1"
     pagecolor="#ffffff"
     bordercolor="#666666"
     borderopacity="1.0"
     inkscape:showpageshadow="2"
     inkscape:pageopacity="0.0"
     inkscape:pagecheckerboard="0"
     inkscape:deskcolor="#d1d1d1"
     inkscape:document-units="mm"
     inkscape:zoom="17.013101"
     inkscape:cx="23.041067"
     inkscape:cy="18.397587"
     inkscape:window-width="1920"
     inkscape:window-height="1088"
     inkscape:window-x="0"
     inkscape:window-y="40"
     inkscape:window-maximized="1"
     inkscape:current-layer="layer1" />
  <defs
     id="defs1" />
  <g
     inkscape:label="Слой 1"
     inkscape:groupmode="layer"
     id="layer1">
    <path
       style="font-weight:bold;font-size:8.46718px;line-height:1.25;font-family:'Times New Roman';-inkscape-font-specification:'Times New Roman, ';fill:#565656;stroke-width:0.21168;stroke:none"
       d="m 2.20967,4.985662 v 1.7364335 q 0,0.4299739 0.045478,0.5374674 0.049612,0.1074935 0.1860465,0.1901809 0.1405684,0.078553 0.3762272,0.078553 H 3.0034681 V 7.6812682 H 0.0722031 V 7.5282967 h 0.18604644 q 0.24392756,0 0.39276471,-0.086822 0.1074935,-0.057881 0.16537462,-0.1984495 0.045478,-0.099225 0.045478,-0.52093 V 3.0342416 q 0,-0.429974 -0.045478,-0.5374675 Q 0.77091085,2.3892806 0.63034243,2.3107276 0.49390837,2.2280403 0.25824954,2.2280403 H 0.0722031 V 2.0750688 h 2.931265 V 2.2280403 H 2.8174217 q -0.2439276,0 -0.3927647,0.086822 Q 2.3171635,2.3727431 2.255148,2.5133115 2.20967,2.6125363 2.20967,3.0342416 V 4.6218379 H 4.190031 V 3.0342416 q 0,-0.429974 -0.045478,-0.5374675 Q 4.099075,2.3892806 3.9585065,2.3107276 3.8179381,2.2280403 3.5822793,2.2280403 H 3.4003672 V 2.0750688 H 6.3274979 V 2.2280403 H 6.1455858 q -0.2480619,0 -0.3927647,0.086822 -0.1074935,0.057881 -0.169509,0.1984495 -0.045478,0.099225 -0.045478,0.5209301 v 3.6878539 q 0,0.4299739 0.045478,0.5374674 0.045478,0.1074935 0.1860465,0.1901809 0.1405684,0.078553 0.3762272,0.078553 H 6.3274979 V 7.6812682 H 3.4003672 V 7.5282967 h 0.1819121 q 0.2480619,0 0.3927647,-0.086822 0.1074935,-0.057881 0.169509,-0.1984495 0.045478,-0.099225 0.045478,-0.52093 V 4.985662 Z M 9.986411,7.6812682 H 6.6871875 V 7.5903122 Q 8.2044996,5.7835945 8.5269801,5.1593053 8.8535949,4.5350162 8.8535949,3.9396676 q 0,-0.4341084 -0.2687337,-0.7193796 -0.2687338,-0.2894056 -0.6573641,-0.2894056 -0.6366923,0 -0.9881133,0.6366923 L 6.7864123,3.5138279 Q 7.009668,2.7200298 7.4644482,2.3396682 7.9192284,1.9593066 8.514577,1.9593066 q 0.4258396,0 0.7772607,0.1984495 0.351421,0.1984495 0.5498706,0.5457362 0.1984497,0.3431523 0.1984497,0.644961 0,0.5498706 -0.3059432,1.1162787 -0.4175709,0.7648576 -1.8232552,2.1333325 h 1.2113691 q 0.4465114,0 0.5788111,-0.037209 0.1364341,-0.037209 0.2232558,-0.124031 0.086821,-0.090956 0.2273904,-0.3762272 h 0.148837 z"
       id="text2"
       transform="scale(0.96405744,1.0372826)"
       aria-label="H2" />
  </g>
</svg>
