<?xml version="1.0" encoding="UTF-8" standalone="no"?>
<!-- Created with Inkscape (http://www.inkscape.org/) -->

<svg
   width="10mm"
   height="10mm"
   viewBox="0 0 10 10"
   version="1.1"
   id="svg1"
   sodipodi:docname="text_subscript.svg"
   inkscape:version="1.3.2 (091e20ef0f, 2023-11-25, custom)"
   xmlns:inkscape="http://www.inkscape.org/namespaces/inkscape"
   xmlns:sodipodi="http://sodipodi.sourceforge.net/DTD/sodipodi-0.dtd"
   xmlns="http://www.w3.org/2000/svg"
   xmlns:svg="http://www.w3.org/2000/svg">
  <sodipodi:namedview
     id="namedview1"
     pagecolor="#ffffff"
     bordercolor="#666666"
     borderopacity="1.0"
     inkscape:showpageshadow="2"
     inkscape:pageopacity="0.0"
     inkscape:pagecheckerboard="0"
     inkscape:deskcolor="#d1d1d1"
     inkscape:document-units="mm"
     inkscape:zoom="17.013101"
     inkscape:cx="23.041067"
     inkscape:cy="18.397587"
     inkscape:window-width="1920"
     inkscape:window-height="1088"
     inkscape:window-x="0"
     inkscape:window-y="40"
     inkscape:window-maximized="1"
     inkscape:current-layer="layer1" />
  <defs
     id="defs1" />
  <g
     inkscape:label="Слой 1"
     inkscape:groupmode="layer"
     id="layer1">
    <g
       id="text2"
       style="font-size:8.462px;line-height:1.25;fill:#565656;stroke-width:0.211551;stroke:none"
       transform="scale(0.96346781,1.0379174)"
       aria-label="XY">
      <path
         style="font-weight:bold;font-family:'Times New Roman';-inkscape-font-specification:'Times New Roman, ';stroke:none"
         d="m 3.7240248,4.3339143 1.5453066,2.293169 q 0.3842608,0.5701933 0.5454024,0.6941484 0.1652734,0.1198232 0.3883925,0.1446142 v 0.152878 H 3.4719828 v -0.152878 q 0.326415,-0.024791 0.4214473,-0.099164 0.095032,-0.074373 0.095032,-0.1818008 0,-0.074373 -0.028923,-0.1322187 Q 3.9016937,6.9287073 3.6703109,6.5898967 L 2.8522074,5.3792688 1.9969174,6.4246233 q -0.3842607,0.4751611 -0.3842607,0.6445664 0,0.1198232 0.099164,0.2231191 0.099164,0.1032959 0.2933604,0.1487461 0.086768,0.024791 0.3553379,0.024791 v 0.152878 H 0.20783246 V 7.4658459 Q 0.57556586,7.4121321 0.78628949,7.2675178 1.0631225,7.0774534 1.5589428,6.4742053 L 2.6704066,5.1189632 1.2449233,3.0241224 Q 0.89371722,2.5076429 0.84413519,2.4497972 0.73257562,2.3134466 0.62514789,2.2556009 0.51772015,2.1977552 0.3276557,2.1688323 V 2.0159544 H 3.1083813 V 2.1688323 H 2.9678988 q -0.2396464,0 -0.3346787,0.078505 -0.095032,0.074373 -0.095032,0.1900645 0,0.0909 0.028923,0.1570097 l 0.2850966,0.429711 0.6941485,1.05775 0.5908525,-0.7230713 q 0.4545019,-0.5577979 0.4545019,-0.780917 0,-0.1115596 -0.066109,-0.2065918 Q 4.4636234,2.2762601 4.3438002,2.2225462 4.2239769,2.1688323 3.971935,2.1688323 V 2.0159544 H 6.0337211 V 2.1688323 Q 5.7899427,2.1729642 5.6411967,2.2308099 5.4924506,2.2845237 5.3230453,2.4374017 5.2156176,2.5365657 4.7859066,3.0530452 Z"
         id="path2" />
      <path
         style="font-weight:bold;font-size:65%;font-family:'Times New Roman';-inkscape-font-specification:'Times New Roman, ';baseline-shift:sub;stroke:none"
         d="m 10.171342,5.6693237 v 0.099371 Q 9.9914001,5.7928656 9.8947151,5.8734364 9.7604304,5.9862355 9.4703756,6.4884602 L 8.6807817,7.8071356 V 8.688043 q 0,0.2819978 0.029543,0.3518258 0.029543,0.067142 0.1154848,0.1208562 0.088628,0.051028 0.2336553,0.051028 h 0.2041127 v 0.099371 H 7.2197646 v -0.099371 h 0.1906842 q 0.1611416,0 0.2551408,-0.0564 0.069828,-0.0376 0.1101135,-0.1289132 0.029543,-0.064457 0.029543,-0.3383974 V 7.9575344 L 6.9485095,6.3971466 Q 6.6933687,5.9352073 6.5886266,5.8546365 6.4838846,5.77138 6.3093145,5.7686944 v -0.099371 h 1.7457007 v 0.099371 h -0.077885 q -0.1584559,0 -0.2229126,0.045657 -0.061771,0.045657 -0.061771,0.096685 0,0.096685 0.2148554,0.4861105 L 8.5652969,7.6030229 9.2206061,6.5045743 q 0.2443981,-0.402854 0.2443981,-0.5344529 0,-0.072514 -0.069828,-0.1208562 -0.091314,-0.067142 -0.3357116,-0.080571 v -0.099371 z"
         id="path3" />
    </g>
  </g>
</svg>
