<svg xmlns="http://www.w3.org/2000/svg" xmlns:xlink="http://www.w3.org/1999/xlink" xml:space="preserve" width="10mm" height="10mm" viewBox="0 0 10 10"><defs><linearGradient id="b"><stop offset="0" style="stop-color:#faf6ee;stop-opacity:1"/><stop offset="1" style="stop-color:#e0ac60;stop-opacity:1"/></linearGradient><linearGradient id="a"><stop offset="0" style="stop-color:#e9e9e9;stop-opacity:1"/><stop offset=".293" style="stop-color:#fff;stop-opacity:1"/><stop offset=".409" style="stop-color:#fff;stop-opacity:1"/><stop offset="1" style="stop-color:#e2e2e2;stop-opacity:1"/></linearGradient><linearGradient xlink:href="#a" id="c" x1="3.424" x2="5.99" y1="3.008" y2="3.228" gradientUnits="userSpaceOnUse"/><radialGradient xlink:href="#b" id="d" cx="8.445" cy="2.517" r=".962" fx="8.445" fy="2.517" gradientTransform="matrix(1.20302 -.14738 .18423 1.65884 -2.253 -3.182)" gradientUnits="userSpaceOnUse"/></defs><path d="M8.265.727C7.277.68 7.027.295 6.228.367c-.629.056-1.547.522-2.013.907s-.53.444-.977.52c-.443.075-1.059-.25-1.878-.134s.087 1.54-.045 2.238S.613 5.797.613 5.797c1.278.262 2.539.318 3.734-.49.505-.323 1.273-.58 1.801-.642.603-.07.947.24 1.588.199Z" style="fill:url(#c);stroke:#949494;stroke-width:.4;stroke-linecap:round;stroke-linejoin:round;stroke-dasharray:none;stroke-opacity:1;paint-order:fill markers stroke"/><rect width="1.212" height="9.221" x="7.78" y="-1.098" rx=".435" ry=".435" style="fill:url(#d);stroke:#6a2d00;stroke-width:.400014;stroke-linecap:round;stroke-linejoin:round;stroke-dasharray:none;stroke-opacity:1;paint-order:fill markers stroke" transform="rotate(10.01)scale(.99993 1)skewY(.685)"/></svg>