<svg xmlns="http://www.w3.org/2000/svg" xmlns:xlink="http://www.w3.org/1999/xlink" xml:space="preserve" width="10mm" height="10mm" viewBox="0 0 10 10"><defs><linearGradient id="b"><stop offset="0" style="stop-color:#faf6ee;stop-opacity:1"/><stop offset="1" style="stop-color:#e0ac60;stop-opacity:1"/></linearGradient><linearGradient id="a"><stop offset="0" style="stop-color:#57bdff;stop-opacity:1"/><stop offset=".293" style="stop-color:#c7e9ff;stop-opacity:1"/><stop offset=".409" style="stop-color:#c7e9ff;stop-opacity:1"/><stop offset="1" style="stop-color:#95d2fa;stop-opacity:.98823529"/></linearGradient><linearGradient xlink:href="#a" id="c" x1="3.424" x2="5.99" y1="3.008" y2="3.228" gradientUnits="userSpaceOnUse"/><radialGradient xlink:href="#b" id="e" cx="8.48" cy="2.502" r=".962" fx="8.48" fy="2.502" gradientTransform="matrix(1.20302 -.14738 .18423 1.65884 -2.253 -3.182)" gradientUnits="userSpaceOnUse"/><filter id="d" width="1.21" height="1.691" x="-.105" y="-.346" style="color-interpolation-filters:sRGB"><feGaussianBlur result="fbSourceGraphic" stdDeviation="0.201 0.608"/><feGaussianBlur in="SourceGraphic" result="result1" stdDeviation=".01"/><feComposite in="fbSourceGraphic" in2="result1" k2=".5" k3=".5" operator="arithmetic" result="result2"/><feBlend in2="fbSourceGraphic" result="result3"/></filter></defs><path d="M8.265.727C7.277.68 7.027.295 6.228.367c-.629.056-1.547.522-2.013.907s-.53.444-.977.52c-.443.075-1.059-.25-1.878-.134v0s.087 1.54-.045 2.238S.613 5.797.613 5.797c1.278.262 2.539.318 3.734-.49.505-.323 1.273-.58 1.801-.642.603-.07.947.24 1.588.199Z" style="fill:url(#c);stroke:#0584f6;stroke-width:.4;stroke-linecap:round;stroke-linejoin:round;stroke-dasharray:none;stroke-opacity:.94902;paint-order:fill markers stroke"/><path d="M6.26.723c-.486.043-1.421.498-1.817.826-.231.192-.373.314-.548.412s-.36.145-.596.185c-.332.057-.622-.028-.924-.083-.202-.037-.426-.032-.646-.034.006.16.012.218.015.485.006.48 0 1.04-.078 1.45-.102.538-.341 1.113-.523 1.522 1.058.168 2.053.169 3.005-.474l.006-.004a5 5 0 0 1 1.953-.7c.37-.042.669.034.913.098.142.038.275.041.406.059l.443-3.457C7.573.957 7.255.906 7.064.844 6.784.752 6.6.692 6.26.723" style="fill:none;stroke:#d6ecff;stroke-width:.4;stroke-linecap:round;stroke-linejoin:round;stroke-dasharray:none;stroke-opacity:1;paint-order:fill markers stroke;filter:url(#d)"/><rect width="1.212" height="9.221" x="7.78" y="-1.098" rx=".435" ry=".435" style="fill:url(#e);stroke:#6a2d00;stroke-width:.400014;stroke-linecap:round;stroke-linejoin:round;stroke-dasharray:none;stroke-opacity:1;paint-order:fill markers stroke" transform="matrix(.98263 .18559 -.17383 .98478 0 0)"/></svg>