<svg xmlns="http://www.w3.org/2000/svg" width="10mm" height="10mm" viewBox="0 0 10 10"><defs><linearGradient id="b" x1="14.403" x2=".829" y1="2.968" y2="7.977" gradientTransform="matrix(.82751 0 0 1.0051 .065 .184)" gradientUnits="userSpaceOnUse"><stop offset="0" stop-color="#f0cb26"/><stop offset=".864" stop-color="#fffbab"/></linearGradient><linearGradient id="a" x1=".597" x2="7.753" y1="7.18" y2="1.256" gradientTransform="matrix(.82124 0 0 1.0053 .128 -.8)" gradientUnits="userSpaceOnUse"><stop offset="0" stop-color="#fffbab"/><stop offset="1" stop-color="#f0cb26"/></linearGradient></defs><path fill="url(#a)" stroke="#d8882d" stroke-linecap="round" stroke-linejoin="round" stroke-width=".397" d="M.342 1.391c.381-.01.33 0 .33 0l2.987.032s0 .002.202.002c.044 0 .03.312.03.312l.008.526s-.017.4.089.4c.093 0 .292-.005.292-.005l3.59.006s.225.001.306 0c.081-.002.044.53.044.53l-.046 4.91s.041.452-.082.452H.328c-.165 0-.125-.606-.125-.606L.24 1.694s-.015-.3.101-.303"/><path fill="url(#b)" stroke="#d8882d" stroke-linejoin="round" stroke-width=".399" d="m.313 8.555.103-.485.859-2.701s.066-.464.198-.466c.253-.003.395 0 .395 0h3.625l.275-1.006 4.033.048-1.665 4.61H.751z"/><path fill="none" stroke="#000" stroke-width=".23" d="m7.642 3.906-3.61 3.982M9.627 5.22l-3.84 4.236M8.395 4.119l-3.41 3.76M8.901 5.031 5.748 8.51"/><path fill="none" stroke="#000" stroke-linecap="round" stroke-width=".23" d="M4.032 7.889c-1.019 1.166.788 2.674 1.755 1.567M9.627 5.22c.783-.864-.455-1.937-1.232-1.101"/><path fill="none" stroke="#000" stroke-linecap="round" stroke-width=".23" d="M4.986 7.88c-.441.565.306 1.187.762.63"/></svg>