<svg xmlns="http://www.w3.org/2000/svg" width="10mm" height="10mm" viewBox="0 0 10 10"><rect width="8.517" height="8.517" x=".799" y=".824" ry=".157" style="fill:#e7f1ff;stroke-width:.600001;stroke-linecap:round;stroke-linejoin:round;paint-order:fill markers stroke;stroke:#4681c2;stroke-opacity:1;fill-opacity:1"/><rect width="8.519" height="1.834" x=".798" y=".629" ry=".034" style="fill:#4681c2;fill-opacity:1;stroke:#4681c2;stroke-width:.596507;stroke-linecap:round;stroke-linejoin:round;stroke-dasharray:none;stroke-opacity:1;paint-order:fill markers stroke"/><path d="M4.215 7.603h-.652v-2.54q-.357.345-.842.51v-.611q.255-.087.554-.326.3-.243.411-.564h.529ZM6.29 4.072q.494 0 .772.364.332.432.332 1.433 0 .997-.334 1.434-.276.36-.77.36-.497 0-.8-.394-.304-.395-.304-1.408 0-.993.334-1.43.276-.36.77-.36m0 .559q-.119 0-.211.079-.093.077-.144.278-.068.262-.068.88 0 .62.06.852.061.23.152.307.092.077.21.077.119 0 .212-.077.092-.079.143-.28.068-.26.068-.878 0-.62-.06-.85-.06-.232-.154-.31-.09-.078-.208-.078" aria-label="10" style="font-weight:700;font-size:5.64164px;line-height:1.25;font-family:Arial;-inkscape-font-specification:Arial;fill:#565656;fill-opacity:1;stroke:none;stroke-width:.120731;stroke-dasharray:none"/></svg>