<svg xmlns="http://www.w3.org/2000/svg" xmlns:xlink="http://www.w3.org/1999/xlink" width="10mm" height="10mm" viewBox="0 0 10 10"><defs><linearGradient id="b"><stop offset="0" style="stop-color:#fffbab;stop-opacity:1"/><stop offset="1" style="stop-color:#f0cb26;stop-opacity:1"/></linearGradient><linearGradient id="a"><stop offset="0" style="stop-color:#f0cb26;stop-opacity:1"/><stop offset=".864" style="stop-color:#fffbab;stop-opacity:1"/></linearGradient><linearGradient xlink:href="#a" id="e" x1="10.566" x2=".829" y1="4.921" y2="7.977" gradientTransform="matrix(.82751 0 0 1.0051 .065 -.12)" gradientUnits="userSpaceOnUse"/><linearGradient xlink:href="#b" id="d" x1=".597" x2="7.753" y1="7.18" y2="1.256" gradientTransform="matrix(.82124 0 0 1.0053 .128 -1.103)" gradientUnits="userSpaceOnUse"/><linearGradient xlink:href="#c" id="f" x1="5" x2="5" y1="8.412" y2="6.255" gradientTransform="matrix(.65285 0 0 .65285 3.395 3.395)" gradientUnits="userSpaceOnUse"/><linearGradient id="c"><stop offset="0" style="stop-color:#4a9500;stop-opacity:1"/><stop offset="1" style="stop-color:#8ec700;stop-opacity:1"/></linearGradient></defs><path d="M.342 1.088c.381-.01.33 0 .33 0l2.987.032s0 .002.202.002c.044 0 .03.312.03.312l.008.527s-.017.4.089.4c.093 0 .292-.006.292-.006l3.591.007s.224 0 .305-.002c.082-.001.044.532.044.532l-.046 4.91s.041.45-.082.45H.328c-.165 0-.125-.605-.125-.605l.038-6.256s-.015-.3.101-.303" style="fill:url(#d);stroke:#d8882d;stroke-width:.397294;stroke-linecap:round;stroke-linejoin:round;stroke-dasharray:none"/><path d="m.313 8.252.103-.485.859-2.701s.066-.464.198-.465c.253-.004.395 0 .395 0h3.625l.275-1.007 4.033.048-1.665 4.61H.751Z" style="fill:url(#e);stroke:#d8882d;stroke-width:.398767;stroke-linecap:butt;stroke-linejoin:round;stroke-dasharray:none;stroke-opacity:1"/><path d="M3.723 3.925h5.873V9.47H3.723z" style="fill:#fff;stroke:none;stroke-width:.486728;paint-order:fill markers stroke"/><path d="M3.578 3.655H9.74v6.086H3.578z" style="fill:none;stroke:#4681c2;stroke-width:.519289;stroke-dasharray:none;stroke-opacity:1;paint-order:fill markers stroke"/><path d="M4.427 4.432h4.465v4.455H4.427z" style="fill:#b1d3ff;fill-opacity:1;stroke:none;stroke-width:.391713;stroke-dasharray:none;stroke-opacity:1;paint-order:fill markers stroke"/><path d="M4.427 7.479h4.465v1.408H4.427z" style="fill:url(#f);fill-opacity:1;stroke:none;stroke-width:.391713;stroke-dasharray:none;stroke-opacity:1;paint-order:fill markers stroke"/><path d="M4.427 4.432v1.46a1.346 1.37 0 0 0 .46.088 1.346 1.37 0 0 0 1.347-1.37 1.346 1.37 0 0 0-.012-.178Z" style="fill:#ebc600;fill-opacity:1;stroke:none;stroke-width:.958103;stroke-dasharray:none;stroke-opacity:1;paint-order:fill markers stroke"/><path d="M7.276 6.207h.615v1.251h-.615z" style="fill:#9b5d1d;fill-opacity:1;stroke:none;stroke-width:.391713;stroke-dasharray:none;stroke-opacity:1;paint-order:fill markers stroke"/><path d="M7.276 4.68c.155-.144.404-.167.615 0 .444.348.913 1.436.513 1.788-.388.341-1.271.33-1.634 0-.384-.35.131-1.44.506-1.788" style="fill:#387300;stroke-width:.42161;paint-order:fill markers stroke;fill-opacity:1"/></svg>