<svg xmlns="http://www.w3.org/2000/svg" width="10mm" height="10mm" viewBox="0 0 10 10"><defs><linearGradient id="b" x1="10.566" x2=".829" y1="4.921" y2="7.977" gradientTransform="matrix(.82751 0 0 1.0051 .065 -.12)" gradientUnits="userSpaceOnUse"><stop offset="0" stop-color="#f0cb26"/><stop offset=".864" stop-color="#fffbab"/></linearGradient><linearGradient id="a" x1=".597" x2="7.753" y1="7.18" y2="1.256" gradientTransform="matrix(.82124 0 0 1.0053 .128 -1.103)" gradientUnits="userSpaceOnUse"><stop offset="0" stop-color="#fffbab"/><stop offset="1" stop-color="#f0cb26"/></linearGradient></defs><path fill="url(#a)" stroke="#d8882d" stroke-linecap="round" stroke-linejoin="round" stroke-width=".397" d="M.342 1.089c.381-.011.33 0 .33 0l2.987.03s0 .003.202.003c.044 0 .03.312.03.312l.008.527s-.017.4.089.4c.093 0 .292-.006.292-.006l3.59.007s.225 0 .306-.001c.081-.002.044.53.044.53l-.046 4.91s.041.452-.082.452H.328c-.165 0-.125-.606-.125-.606L.24 1.391s-.015-.3.101-.303"/><path fill="url(#b)" stroke="#d8882d" stroke-linejoin="round" stroke-width=".399" d="m.313 8.252.103-.485.859-2.701s.066-.464.198-.465c.253-.004.395 0 .395 0h3.625l.275-1.006 4.033.047-1.665 4.61H.751z"/><circle cx="7.105" cy="7.308" r="2.587" fill="#8ec700" stroke="#4a9500" stroke-linecap="round" stroke-linejoin="round" stroke-width=".61"/><path fill="none" stroke="#fff" stroke-width=".73" d="M7.105 5.356v3.863M9.037 7.287H5.174"/></svg>