<svg xmlns="http://www.w3.org/2000/svg" width="10mm" height="10mm" viewBox="0 0 10 10"><path d="M8.585.937c.23 0 .227 0 .23.685.002.65-.03.65-.23.65H3.512V.937z" style="stroke:#4681c2;stroke-width:0;stroke-linecap:round;paint-order:fill markers stroke;fill:#565656;fill-opacity:1"/><path d="M3.551.935A2.366 2.366 0 0 0 1.185 3.3a2.366 2.366 0 0 0 2.366 2.366Z" style="fill:#565656;stroke:#4681c2;stroke-width:0;stroke-linecap:square;stroke-dasharray:none;paint-order:fill markers stroke;fill-opacity:1"/><path d="M7.498 8.836c0 .23 0 .227-.685.23-.65.002-.65-.03-.65-.23V2.272h1.335zM4.857 8.834c0 .229 0 .227-.686.229-.65.002-.65-.03-.65-.23V2.27h1.336z" style="stroke:#4681c2;stroke-width:0;stroke-linecap:round;paint-order:fill markers stroke;fill:#565656;fill-opacity:1"/></svg>