<svg xmlns="http://www.w3.org/2000/svg" width="10mm" height="10mm" viewBox="0 0 10 10"><path d="m7.744 5.41.846.846c.62.62.6 1.64-.047 2.287-.647.646-1.667.668-2.287.047l-.846-.846c-.62-.62-.599-1.64.048-2.286.646-.647 1.666-.668 2.286-.048" style="fill:none;stroke:#4681c2;stroke-width:.878746;stroke-linecap:round;stroke-linejoin:round;paint-order:fill markers stroke;stroke-opacity:1"/><path d="M3.743 3.19 6.81 6.256c.217.217.268.515.114.668-.153.154-.45.103-.668-.114L3.19 3.743c-.217-.217-.268-.515-.114-.668.153-.154.45-.103.668.114" style="fill:#565656;stroke:#4681c2;stroke-width:.772635;stroke-linecap:round;stroke-linejoin:round;paint-order:fill markers stroke;stroke-opacity:1"/><path d="m3.744 1.41.846.846c.62.62.599 1.64-.048 2.286-.646.647-1.666.668-2.286.048l-.846-.846c-.62-.62-.6-1.64.047-2.287C2.104.811 3.124.79 3.744 1.41" style="fill:none;stroke:#4681c2;stroke-width:.878746;stroke-linecap:round;stroke-linejoin:round;paint-order:fill markers stroke;stroke-opacity:1"/></svg>