<svg xmlns="http://www.w3.org/2000/svg" xmlns:xlink="http://www.w3.org/1999/xlink" width="10mm" height="10mm" viewBox="0 0 10 10"><defs><linearGradient id="a"><stop offset="0" style="stop-color:#f48400;stop-opacity:1"/><stop offset=".319" style="stop-color:#f8eaaa;stop-opacity:1"/><stop offset="1" style="stop-color:#f48400;stop-opacity:1"/></linearGradient><linearGradient xlink:href="#a" id="b" x1="2.37" x2="6.095" y1="4.803" y2="4.803" gradientTransform="rotate(45 4.657 5.478)scale(1.11085 .87696)" gradientUnits="userSpaceOnUse"/></defs><path d="M7.747.453c.2.104 1.939 1.845 2.003 2.012.03.08-.04.122-.04.122l-.421.421-.608.615L6.578 1.52l.616-.623.414-.414s.057-.073.14-.03z" style="fill:#b41ca5;stroke:#b41ca5;stroke-width:.492;stroke-linecap:square;stroke-linejoin:miter;stroke-dasharray:none;stroke-opacity:1;fill-opacity:1"/><path d="M6.277 1.466 8.732 3.92 4.848 7.721l-2.39-2.395Z" style="fill:url(#b);stroke:none;stroke-width:.3948;stroke-linejoin:round"/><path d="M2.458 5.326.456 9.665 4.848 7.72c-.416-1.106-1.51-2.137-2.39-2.395" style="fill:#f8eaaa;fill-opacity:1;stroke:none;stroke-width:.725138;stroke-linecap:square;stroke-linejoin:bevel;stroke-dasharray:none;stroke-opacity:1"/><path d="M4.8 7.6 2.14 8.772" style="fill:none;stroke:#f5971f;stroke-width:.265;stroke-linecap:butt;stroke-linejoin:miter;stroke-dasharray:none;stroke-opacity:1"/><path d="M5.475-3.402h3.471v.482H5.475z" style="fill:#a1a1a1;fill-opacity:1;stroke:none;stroke-width:.65403;stroke-linecap:square;stroke-linejoin:bevel;stroke-dasharray:none;stroke-opacity:1" transform="rotate(45)"/><path d="M2.6 5.357 1.329 8.099" style="fill:none;stroke:#f5971f;stroke-width:.265;stroke-linecap:butt;stroke-linejoin:miter;stroke-dasharray:none;stroke-opacity:1"/><path d="m.456 9.665.79-1.712c.517.142.755.376.94.946z" style="fill:#000;fill-opacity:1;stroke:none;stroke-width:.513671;stroke-linecap:butt;stroke-linejoin:miter;stroke-dasharray:none;stroke-opacity:1"/></svg>