<svg xmlns="http://www.w3.org/2000/svg" xmlns:xlink="http://www.w3.org/1999/xlink" width="10mm" height="10mm" viewBox="0 0 10 10"><defs><linearGradient id="a"><stop offset="0" style="stop-color:#4a9500;stop-opacity:1"/><stop offset="1" style="stop-color:#8ec700;stop-opacity:1"/></linearGradient><linearGradient xlink:href="#a" id="b" x1="5" x2="5" y1="8.412" y2="6.255" gradientUnits="userSpaceOnUse"/></defs><path d="M.281.398H9.72V9.72H.281z" style="fill:none;stroke:#4681c2;stroke-width:.795413;stroke-dasharray:none;stroke-opacity:1;paint-order:fill markers stroke"/><path d="M1.581 1.588H8.42v6.824H1.581z" style="fill:#b1d3ff;fill-opacity:1;stroke:none;stroke-width:.600001;stroke-dasharray:none;stroke-opacity:1;paint-order:fill markers stroke"/><path d="M1.581 6.255H8.42v2.157H1.581z" style="fill:url(#b);fill-opacity:1;stroke:none;stroke-width:.600001;stroke-dasharray:none;stroke-opacity:1;paint-order:fill markers stroke"/><path d="M1.58 1.588v2.238a2.061 2.098 0 0 0 .707.133 2.061 2.098 0 0 0 2.06-2.098 2.061 2.098 0 0 0-.017-.273Z" style="fill:#f3d215;fill-opacity:1;stroke:none;stroke-width:1.46756;stroke-dasharray:none;stroke-opacity:1;paint-order:fill markers stroke"/><path d="M5.945 4.307h.943v1.916h-.943z" style="fill:#c17624;fill-opacity:1;stroke:none;stroke-width:.600001;stroke-dasharray:none;stroke-opacity:1;paint-order:fill markers stroke"/><path d="M5.945 1.968c.237-.22.618-.255.942 0 .68.533 1.398 2.2.785 2.738-.594.523-1.947.506-2.502 0-.59-.535.2-2.205.775-2.738" style="fill:#4a9500;stroke-width:.645795;paint-order:fill markers stroke"/></svg>