<svg xmlns="http://www.w3.org/2000/svg" width="10mm" height="10mm" viewBox="0 0 10 10"><path d="M2.21 4.986v1.736q0 .43.045.538.05.107.186.19.14.078.376.078h.186v.153H.073v-.153h.185q.244 0 .393-.087.108-.057.165-.198.046-.1.046-.52v-3.69q0-.43-.046-.537Q.771 2.389.63 2.31q-.136-.083-.372-.083H.072v-.153h2.931v.153h-.186q-.244 0-.392.087-.108.058-.17.198-.045.1-.045.521v1.588h1.98V3.034q0-.43-.045-.537-.046-.108-.186-.186-.141-.083-.377-.083H3.4v-.153h2.927v.153h-.181q-.248 0-.393.087-.108.058-.17.198-.045.1-.045.521v3.688q0 .43.045.538.046.107.186.19.14.078.377.078h.181v.153H3.4v-.153h.182q.248 0 .393-.087.108-.057.17-.198.045-.1.045-.52V4.985ZM9.986 7.68H6.687v-.09q1.517-1.807 1.84-2.432.327-.624.327-1.22 0-.433-.27-.719-.268-.29-.657-.29-.636 0-.988.638l-.153-.054q.224-.794.678-1.174t1.05-.38q.426 0 .778.198.351.198.55.545.198.344.198.645 0 .55-.306 1.117-.417.765-1.823 2.133h1.211q.447 0 .58-.037.136-.037.222-.124.087-.091.228-.376h.149z" aria-label="H2" style="font-weight:700;font-size:8.46718px;line-height:1.25;font-family:&quot;Times New Roman&quot;;-inkscape-font-specification:&quot;Times New Roman, &quot;;fill:#565656;stroke-width:.21168;stroke:none" transform="scale(.96406 1.03728)"/></svg>