<svg xmlns="http://www.w3.org/2000/svg" width="10mm" height="10mm" viewBox="0 0 10 10"><g aria-label="XY" style="font-size:8.462px;line-height:1.25;fill:#565656;stroke-width:.211551;stroke:none"><path d="m3.724 4.334 1.545 2.293q.385.57.546.694.165.12.388.145v.153H3.472v-.153q.326-.025.421-.1.095-.074.095-.181 0-.074-.028-.132-.058-.124-.29-.463l-.818-1.21-.855 1.045q-.384.475-.384.644 0 .12.099.223t.293.15q.087.024.356.024v.153H.208v-.153q.368-.054.578-.198.277-.19.773-.794L2.67 5.12 1.245 3.024q-.351-.516-.4-.574-.112-.137-.22-.194-.107-.058-.297-.087v-.153h2.78v.153h-.14q-.24 0-.335.078-.095.075-.095.19 0 .091.03.157l.284.43.694 1.058.591-.723q.455-.558.455-.781 0-.112-.066-.207-.062-.095-.182-.148-.12-.054-.372-.054v-.153h2.062v.153q-.244.004-.393.062-.149.054-.318.206-.107.1-.537.616Z" style="font-weight:700;font-family:&quot;Times New Roman&quot;;-inkscape-font-specification:&quot;Times New Roman, &quot;;stroke:none" transform="scale(.96347 1.03792)"/><path d="M10.171.592v.1q-.18.024-.276.104-.135.113-.425.615L8.68 2.73v.88q0 .283.03.353.03.067.116.12.088.052.233.052h.205v.099H7.22v-.1h.19q.162 0 .256-.056.07-.037.11-.129.03-.064.03-.338v-.73L6.948 1.32q-.256-.462-.36-.543-.105-.083-.28-.086V.592h1.746v.1h-.078q-.158 0-.223.045-.062.046-.062.097 0 .097.215.486l.658 1.206.656-1.099q.244-.402.244-.534 0-.073-.07-.12Q9.304.704 9.06.69V.592z" style="font-weight:700;font-size:65%;font-family:&quot;Times New Roman&quot;;-inkscape-font-specification:&quot;Times New Roman, &quot;;baseline-shift:super;stroke:none;fill:#565656;fill-opacity:1" transform="scale(.96347 1.03792)"/></g></svg>