<svg xmlns="http://www.w3.org/2000/svg" width="10mm" height="10mm" viewBox="0 0 10 10"><path d="M2.136 4.925V6.66q0 .43.046.537.05.108.186.19.14.079.376.079h.185v.153H0v-.153h.186q.244 0 .392-.087.108-.058.166-.198.045-.1.045-.52V2.974q0-.43-.045-.538-.046-.107-.186-.186Q.42 2.17.186 2.17H0v-.153h2.93v.153h-.186q-.244 0-.393.087-.107.057-.17.198-.045.1-.045.52v1.587h1.98V2.975q0-.43-.046-.538-.046-.107-.186-.186-.14-.082-.376-.082h-.182v-.153h2.925v.153H6.07q-.248 0-.393.087-.107.057-.17.198-.045.1-.045.52V6.66q0 .43.046.537.045.108.186.19.14.079.376.079h.181v.153H3.326v-.153h.182q.248 0 .392-.087.108-.058.17-.198.045-.1.045-.52V4.924Zm5.557-2.909h2.624L9.9 3.082H7.693l-.21.558q1.425.053 2.194.71.632.542.632 1.347 0 .517-.293 1.013-.294.491-.827.76-.533.264-1.17.264-.685 0-1.053-.256-.256-.182-.256-.413 0-.178.132-.314.137-.136.314-.136.161 0 .327.066.165.066.566.347.252.173.434.24.128.05.289.05.339 0 .574-.249.24-.248.24-.595 0-.727-.727-1.182-.728-.454-1.835-.454-.111 0-.335.004z" aria-label="H5" style="font-weight:700;font-size:8.462px;line-height:1.25;font-family:&quot;Times New Roman&quot;;-inkscape-font-specification:&quot;Times New Roman, &quot;;fill:#565656;stroke-width:.211551;stroke:none" transform="scale(.96347 1.03792)"/></svg>