<svg xmlns="http://www.w3.org/2000/svg" width="10mm" height="10mm" viewBox="0 0 10 10"><path d="M0 0v.32L9.68 10H10v-.32L.32 0Zm1.938 0L10 8.06v-.639L2.578 0Zm2.259 0L10 5.803v-.64L4.836 0Zm2.258 0L10 3.545v-.64L7.095 0Zm2.259 0L10 1.286v-.64L9.353 0ZM0 1.938v.64L7.422 10h.64zm0 2.26v.639L5.164 10h.64zm0 2.257v.64L2.905 10h.64Zm0 2.258v.64L.647 10h.64Z" style="fill:#4681c2;fill-opacity:1;stroke-width:.860906;stroke-linecap:round;stroke-linejoin:round;paint-order:fill markers stroke"/><path d="M.745 8.39h3.317V6.421l.916-.013v1.943l4.098.034L5.543.721H4.32Z" style="fill:#fff;fill-opacity:1;stroke:none;stroke-width:.264583px;stroke-linecap:butt;stroke-linejoin:miter;stroke-opacity:1"/><path d="M5.49 6.024H3.173l-.276.639q-.135.32-.135.527 0 .276.222.406.13.078.644.116v.18H1.446v-.18q.353-.053.58-.29.228-.242.562-.991l2.346-5.234h.091l2.366 5.379q.338.764.556.962.165.15.464.174v.18H5.238v-.18h.13q.383 0 .538-.106.106-.077.106-.222 0-.088-.029-.18-.01-.043-.145-.362zm-.165-.358-.977-2.259-1.006 2.26Z" aria-label="A" style="font-weight:700;font-size:10.5833px;line-height:1.25;font-family:&quot;Times New Roman&quot;;-inkscape-font-specification:&quot;Times New Roman, &quot;;fill:#565656;fill-opacity:1;stroke:none;stroke-width:.247662"/></svg>