<svg xmlns="http://www.w3.org/2000/svg" width="10mm" height="10mm" viewBox="0 0 10 10"><path d="M2.18 4.983v1.735q0 .43.045.537.05.108.186.19.14.079.376.079h.186v.153H.043v-.153H.23q.244 0 .393-.087.107-.058.165-.198.046-.1.046-.521V3.032q0-.43-.046-.537-.045-.107-.186-.186-.136-.082-.372-.082H.043v-.153h2.93v.153h-.186q-.244 0-.393.086-.107.058-.169.199-.045.099-.045.52V4.62h1.979V3.032q0-.43-.046-.537-.045-.107-.186-.186-.14-.082-.376-.082H3.37v-.153h2.925v.153h-.182q-.248 0-.392.086-.108.058-.17.199-.045.099-.045.52v3.686q0 .43.045.537.046.108.186.19.14.079.376.079h.182v.153H3.37v-.153h.181q.248 0 .393-.087.107-.058.17-.198.045-.1.045-.521V4.983Zm4.478.582L9.32 1.958h.504v3.607h.513v.855h-.513v1.257H8.687V6.42H6.658Zm.401 0h1.628v-2.21Z" aria-label="H4" style="font-weight:700;font-size:8.462px;line-height:1.25;font-family:&quot;Times New Roman&quot;;-inkscape-font-specification:&quot;Times New Roman, &quot;;fill:#565656;stroke-width:.211551;stroke:none" transform="scale(.96347 1.03792)"/></svg>