<svg xmlns="http://www.w3.org/2000/svg" width="10mm" height="10mm" viewBox="0 0 10 10"><path d="M4.912 6.554H2.2l-.475 1.324q-.176.49-.176.73 0 .192.15.34.155.143.661.187v.229H.153v-.23q.439-.092.568-.24.264-.298.584-1.208L3.77.78h.18l2.44 6.98q.295.842.532 1.096.243.248.672.279v.229H4.83v-.23q.419-.024.564-.167.15-.142.15-.346 0-.272-.207-.86zm-.145-.458L3.58 2.705l-1.22 3.39Z" aria-label="A" style="font-size:10.5833px;line-height:1.25;font-family:&quot;Times New Roman&quot;;-inkscape-font-specification:&quot;Times New Roman, &quot;;fill:#565656;fill-opacity:1;stroke:none;stroke-width:.289545"/><path d="M6.639 3.29H10L8.328.11Z" style="fill:#4681c2;fill-opacity:1;stroke:none;stroke-width:.315585px;stroke-linecap:butt;stroke-linejoin:miter;stroke-opacity:1"/></svg>