<svg xmlns="http://www.w3.org/2000/svg" xmlns:xlink="http://www.w3.org/1999/xlink" width="10mm" height="10mm" viewBox="0 0 10 10"><defs><linearGradient id="a"><stop offset="0" style="stop-color:#4a9500;stop-opacity:1"/><stop offset="1" style="stop-color:#8ec700;stop-opacity:1"/></linearGradient><linearGradient xlink:href="#a" id="b" x1="5" x2="5" y1="8.412" y2="6.255" gradientTransform="matrix(.7458 0 0 .55362 .468 .75)" gradientUnits="userSpaceOnUse"/><linearGradient xlink:href="#a" id="c" x1="5" x2="5" y1="8.412" y2="6.255" gradientTransform="matrix(.55452 0 0 .41613 4.126 5.288)" gradientUnits="userSpaceOnUse"/></defs><path d="M1.647 1.63h5.1v3.778h-5.1z" style="fill:#b1d3ff;fill-opacity:1;stroke:none;stroke-width:.385538;stroke-dasharray:none;stroke-opacity:1;paint-order:fill markers stroke"/><path d="M1.647 4.214h5.1v1.194h-5.1z" style="fill:url(#b);fill-opacity:1;stroke:none;stroke-width:.385538;stroke-dasharray:none;stroke-opacity:1;paint-order:fill markers stroke"/><path d="M3.987 1.994c.139-.115.362-.133.552 0 .398.277.818 1.143.46 1.424-.348.271-1.14.262-1.466 0-.345-.279.118-1.147.454-1.424" style="fill:#4a9500;stroke-width:.356386;paint-order:fill markers stroke"/><path d="M.437.443h7.521v6.151H.437z" style="fill:#fff;fill-opacity:1;stroke:#8f581b;stroke-width:.786955;stroke-linejoin:round;stroke-dasharray:none;stroke-opacity:1;paint-order:fill markers stroke"/><path d="M1.647 1.63h5.1v3.778h-5.1z" style="fill:#8ec700;fill-opacity:1;stroke:#4a9500;stroke-width:.385958;stroke-linejoin:round;stroke-dasharray:none;stroke-opacity:1;paint-order:fill markers stroke"/><ellipse cx="2.848" cy="2.946" rx=".46" ry=".573" style="fill:#f3d542;fill-opacity:1;stroke:#f3d542;stroke-width:.620842;stroke-linecap:round;stroke-linejoin:round;stroke-dasharray:none;stroke-opacity:1;paint-order:fill markers stroke"/><path d="M3.913 4.223c.763-.644 1.603.3 2.302-.01M3.913 3.64c.763-.644 1.603.301 2.302-.01M3.913 4.805c.763-.643 1.603.301 2.302-.009" style="fill:none;stroke:#fff;stroke-width:.273775px;stroke-linecap:butt;stroke-linejoin:miter;stroke-opacity:1"/><path d="M5.003 5.949h3.792v2.84H5.003z" style="fill:#b1d3ff;fill-opacity:1;stroke:none;stroke-width:.288221;stroke-dasharray:none;stroke-opacity:1;paint-order:fill markers stroke"/><path d="M5.003 7.891h3.792v.898H5.003z" style="fill:url(#c);fill-opacity:1;stroke:none;stroke-width:.288221;stroke-dasharray:none;stroke-opacity:1;paint-order:fill markers stroke"/><path d="M6.742 6.223c.104-.087.27-.1.41 0 .297.208.61.86.343 1.07-.26.204-.848.197-1.09 0-.257-.21.087-.862.337-1.07" style="fill:#4a9500;stroke-width:.266427;paint-order:fill markers stroke"/><path d="M4.103 5.057h5.592V9.68H4.103z" style="fill:#fff;fill-opacity:1;stroke:#8f581b;stroke-width:.588313;stroke-linejoin:round;stroke-dasharray:none;stroke-opacity:1;paint-order:fill markers stroke"/><path d="M5.003 5.949h3.792v2.84H5.003z" style="fill:#8ec700;fill-opacity:1;stroke:#4a9500;stroke-width:.288534;stroke-linejoin:round;stroke-dasharray:none;stroke-opacity:1;paint-order:fill markers stroke"/><ellipse cx="5.896" cy="6.939" rx=".342" ry=".43" style="fill:#f3d542;fill-opacity:1;stroke:#f3d542;stroke-width:.46413;stroke-linecap:round;stroke-linejoin:round;stroke-dasharray:none;stroke-opacity:1;paint-order:fill markers stroke"/><path d="M6.687 7.898c.568-.484 1.193.227 1.712-.007M6.687 7.46c.568-.484 1.193.227 1.712-.007M6.687 8.336c.568-.484 1.193.226 1.712-.007" style="fill:none;stroke:#fff;stroke-width:.204668px;stroke-linecap:butt;stroke-linejoin:miter;stroke-opacity:1"/><path d="M.437 6.594C.42 8.656 2.133 9.681 4.103 9.681" style="fill:none;stroke:#565656;stroke-width:.6;stroke-linecap:round;stroke-linejoin:miter;stroke-dasharray:none;stroke-opacity:1"/></svg>