/* XPM */
static char * outwiker_xpm[] = {
"32 32 470 2",
"  	c None",
". 	c #111D0E",
"+ 	c #28461A",
"@ 	c #334B25",
"# 	c #305A1F",
"$ 	c #476837",
"% 	c #060F09",
"& 	c #346421",
"* 	c #689355",
"= 	c #0D1E0F",
"- 	c #3D7323",
"; 	c #8AC073",
"> 	c #173213",
", 	c #447D25",
"' 	c #97CF7D",
") 	c #334B39",
"! 	c #254914",
"~ 	c #468227",
"{ 	c #98D17A",
"] 	c #669066",
"^ 	c #76512B",
"/ 	c #CE8C3C",
"( 	c #122410",
"_ 	c #325B18",
": 	c #498629",
"< 	c #94CC6F",
"[ 	c #89BD81",
"} 	c #5A3C21",
"| 	c #C57D23",
"1 	c #F4A12E",
"2 	c #F8AC41",
"3 	c #60442D",
"4 	c #274616",
"5 	c #3C6A1B",
"6 	c #4B8A29",
"7 	c #94CC6B",
"8 	c #90C87F",
"9 	c #507352",
"0 	c #925C1D",
"a 	c #E2890E",
"b 	c #FB9C14",
"c 	c #FCA72E",
"d 	c #FAB047",
"e 	c #86613C",
"f 	c #132410",
"g 	c #366119",
"h 	c #46751F",
"i 	c #4E8F29",
"j 	c #98D16E",
"k 	c #8BC169",
"l 	c #709E59",
"m 	c #674421",
"n 	c #4E331B",
"o 	c #CF7D0E",
"p 	c #E88B07",
"q 	c #FB990F",
"r 	c #FCA62C",
"s 	c #FCB249",
"t 	c #B4834E",
"u 	c #102113",
"v 	c #274D1A",
"w 	c #38661B",
"x 	c #509228",
"y 	c #9AD46C",
"z 	c #83B75B",
"A 	c #4F7340",
"B 	c #263A1F",
"C 	c #986329",
"D 	c #E18F1F",
"E 	c #EF9820",
"F 	c #422E23",
"G 	c #C27713",
"H 	c #E28707",
"I 	c #F7960B",
"J 	c #FCA326",
"K 	c #FDB045",
"L 	c #CE9653",
"M 	c #07110E",
"N 	c #2F5016",
"O 	c #325E19",
"P 	c #4E8F27",
"Q 	c #95CF63",
"R 	c #87BB6E",
"S 	c #567A51",
"T 	c #62401D",
"U 	c #D58112",
"V 	c #F99911",
"W 	c #FC9E18",
"X 	c #F99F21",
"Y 	c #815629",
"Z 	c #B67018",
"` 	c #DE8507",
" .	c #F49309",
"..	c #FCA120",
"+.	c #FCAE40",
"@.	c #DDA053",
"#.	c #183113",
"$.	c #3C6018",
"%.	c #3C6B1C",
"&.	c #549428",
"*.	c #99D36A",
"=.	c #85B065",
"-.	c #707C5C",
";.	c #624429",
">.	c #7E542C",
",.	c #7C4F1F",
"'.	c #EA8C07",
").	c #FB980C",
"!.	c #FC9D17",
"~.	c #FBA122",
"{.	c #BA7C33",
"].	c #9E621A",
"^.	c #DD8507",
"/.	c #F39108",
"(.	c #FB9F1B",
"_.	c #FCAC3B",
":.	c #EFAD53",
"<.	c #39601B",
"[.	c #3D671A",
"}.	c #47771F",
"|.	c #5C8C2D",
"1.	c #8C7B3F",
"2.	c #B17228",
"3.	c #E58F1B",
"4.	c #FC9F1B",
"5.	c #CD862C",
"6.	c #764C20",
"7.	c #E68A07",
"8.	c #F89509",
"9.	c #FC9B13",
"0.	c #E4972E",
"a.	c #39281F",
"b.	c #86551C",
"c.	c #E08607",
"d.	c #F29107",
"e.	c #FB9D18",
"f.	c #FCAA36",
"g.	c #FCB652",
"h.	c #5B4234",
"i.	c #223C14",
"j.	c #4C741D",
"k.	c #40701D",
"l.	c #4A7B20",
"m.	c #627334",
"n.	c #BA7111",
"o.	c #E58907",
"p.	c #F9970C",
"q.	c #E89626",
"r.	c #3F2C1E",
"s.	c #6E4822",
"t.	c #E48907",
"u.	c #F59308",
"v.	c #FB990E",
"w.	c #FC9F1C",
"x.	c #FAA329",
"y.	c #69482B",
"z.	c #794E20",
"A.	c #F49208",
"B.	c #FB9D17",
"C.	c #FCA933",
"D.	c #FDB54F",
"E.	c #715238",
"F.	c #10200E",
"G.	c #47711E",
"H.	c #4A701C",
"I.	c #4D8221",
"J.	c #4B7E21",
"K.	c #6B9033",
"L.	c #A0631A",
"M.	c #D37E06",
"N.	c #F19008",
"O.	c #FB9A10",
"P.	c #FAA020",
"Q.	c #6E4B2B",
"R.	c #6F4823",
"S.	c #FB980B",
"T.	c #9D6729",
"U.	c #774E2D",
"V.	c #F69409",
"W.	c #FCA831",
"X.	c #FDB44D",
"Y.	c #845F3C",
"Z.	c #3E641D",
"`.	c #497320",
" +	c #36661D",
".+	c #5C8C23",
"++	c #4E8723",
"@+	c #72AA31",
"#+	c #885D27",
"$+	c #C07306",
"%+	c #E18706",
"&+	c #FC9E1A",
"*+	c #9A6528",
"=+	c #784F28",
"-+	c #FB970A",
";+	c #FC9C14",
">+	c #FCA222",
",+	c #D48A2B",
"'+	c #82583C",
")+	c #EE8F07",
"!+	c #F9960A",
"~+	c #FCA830",
"{+	c #FDB34B",
"]+	c #89633C",
"^+	c #152914",
"/+	c #172C16",
"(+	c #112318",
"_+	c #467A22",
":+	c #618D23",
"<+	c #4A8322",
"[+	c #619D2C",
"}+	c #7C6D34",
"|+	c #AC6708",
"1+	c #CF7C06",
"2+	c #E98B07",
"3+	c #CF8528",
"4+	c #906034",
"5+	c #F08F07",
"6+	c #F49207",
"7+	c #FB9609",
"8+	c #FC9A11",
"9+	c #FCA01D",
"0+	c #ED9722",
"a+	c #87592F",
"b+	c #ED8E0B",
"c+	c #FCA01E",
"d+	c #FDB24A",
"e+	c #966C3F",
"f+	c #020505",
"g+	c #1F3D17",
"h+	c #4D8523",
"i+	c #608F24",
"j+	c #4A771F",
"k+	c #63A22B",
"l+	c #77803C",
"m+	c #9F610B",
"n+	c #C27406",
"o+	c #DC8406",
"p+	c #F6940A",
"q+	c #E08D1E",
"r+	c #A76B2D",
"s+	c #F69308",
"t+	c #FB9608",
"u+	c #FC990D",
"v+	c #FC9D18",
"w+	c #FB9E1A",
"x+	c #AF712B",
"y+	c #EC8E0D",
"z+	c #FCA121",
"A+	c #FCA832",
"B+	c #FCB248",
"C+	c #081009",
"D+	c #315318",
"E+	c #45761E",
"F+	c #679726",
"G+	c #4C7B20",
"H+	c #6CAE2E",
"I+	c #809F46",
"J+	c #8F5C1A",
"K+	c #B66D05",
"L+	c #D07C06",
"M+	c #ED8E07",
"N+	c #EF9212",
"O+	c #BE7825",
"P+	c #F89408",
"Q+	c #F79408",
"R+	c #FA9608",
"S+	c #FB9709",
"T+	c #FC9B11",
"U+	c #DB891C",
"V+	c #EA8D0F",
"W+	c #FB9C13",
"X+	c #FCA224",
"Y+	c #FCA934",
"Z+	c #FDB248",
"`+	c #9A7040",
" @	c #264216",
".@	c #446C1B",
"+@	c #5D9526",
"@@	c #689626",
"#@	c #4C8021",
"$@	c #74B62F",
"%@	c #87B942",
"&@	c #815A29",
"*@	c #AB6605",
"=@	c #C47506",
"-@	c #E18707",
";@	c #DD8818",
">@	c #F89508",
",@	c #FA9609",
"'@	c #F8960C",
")@	c #F0910E",
"!@	c #FC9C15",
"~@	c #FCA427",
"{@	c #FCB148",
"]@	c #966C3E",
"^@	c #16280F",
"/@	c #486F1E",
"(@	c #4D8121",
"_@	c #70A62A",
":@	c #638F24",
"<@	c #4F8A24",
"[@	c #7DBC30",
"}@	c #87C335",
"|@	c #7F6E41",
"1@	c #A06009",
"2@	c #B96E05",
"3@	c #D68006",
"4@	c #F9970B",
"5@	c #F99508",
"6@	c #F09009",
"7@	c #F19007",
"8@	c #F99609",
"9@	c #FCA428",
"0@	c #FCAB37",
"a@	c #FDB148",
"b@	c #936A3D",
"c@	c #436B1D",
"d@	c #4C771E",
"e@	c #619A27",
"f@	c #73A72A",
"g@	c #5A8322",
"h@	c #539428",
"i@	c #84C132",
"j@	c #80BE31",
"k@	c #828A50",
"l@	c #955B0E",
"m@	c #B06905",
"n@	c #CD7A06",
"o@	c #EB8C07",
"p@	c #FA970A",
"q@	c #FC980C",
"r@	c #CA7C19",
"s@	c #E28808",
"t@	c #FCA529",
"u@	c #FDAB39",
"v@	c #FDB249",
"w@	c #88613A",
"x@	c #3C601B",
"y@	c #4D761E",
"z@	c #568D25",
"A@	c #619929",
"B@	c #436A1E",
"C@	c #213B10",
"D@	c #5C9C2D",
"E@	c #6F9F2F",
"F@	c #467E29",
"G@	c #749545",
"H@	c #8C5A19",
"I@	c #A76405",
"J@	c #C57606",
"K@	c #E68907",
"L@	c #FA970B",
"M@	c #FC990F",
"N@	c #986231",
"O@	c #C27714",
"P@	c #D78107",
"Q@	c #DC8407",
"R@	c #E28807",
"S@	c #FB9D16",
"T@	c #FCA52A",
"U@	c #FDAB3A",
"V@	c #7E5A38",
"W@	c #1E3917",
"X@	c #223F1A",
"Y@	c #1A3314",
"Z@	c #172C10",
"`@	c #060C05",
" #	c #010201",
".#	c #152B0B",
"+#	c #588126",
"@#	c #3C4322",
"##	c #394633",
"$#	c #446A2A",
"%#	c #7D5F2C",
"&#	c #A05F05",
"*#	c #BD7106",
"=#	c #DF8607",
"-#	c #FC9A10",
";#	c #F19210",
">#	c #644228",
",#	c #87551E",
"'#	c #C97806",
")#	c #CE7B06",
"!#	c #E98C07",
"~#	c #FB9B14",
"{#	c #FCA52B",
"]#	c #FDAC3A",
"^#	c #6B4C34",
"/#	c #0F1906",
"(#	c #2D2F16",
"_#	c #4E4B2E",
":#	c #56604C",
"<#	c #13170A",
"[#	c #574129",
"}#	c #995C08",
"|#	c #B66C05",
"1#	c #D78106",
"2#	c #F39208",
"3#	c #E18A15",
"4#	c #442E21",
"5#	c #B66E0A",
"6#	c #BF7206",
"7#	c #FA9910",
"8#	c #FCAB38",
"9#	c #FAAF47",
"0#	c #594031",
"a#	c #37351F",
"b#	c #6E623A",
"c#	c #727A5F",
"d#	c #0E0C09",
"e#	c #322219",
"f#	c #915911",
"g#	c #B16A05",
"h#	c #D17D06",
"i#	c #FA9709",
"j#	c #D78418",
"k#	c #955D1C",
"l#	c #BC7006",
"m#	c #D57F06",
"n#	c #F6950C",
"o#	c #FCA932",
"p#	c #F4A941",
"q#	c #473228",
"r#	c #585632",
"s#	c #897444",
"t#	c #989A76",
"u#	c #87551D",
"v#	c #B26A05",
"w#	c #CC7A06",
"x#	c #E48807",
"y#	c #AC6B1C",
"z#	c #56381E",
"A#	c #A26107",
"B#	c #C87806",
"C#	c #EC8D07",
"D#	c #FB9C15",
"E#	c #E39A38",
"F#	c #232315",
"G#	c #7F7443",
"H#	c #968049",
"I#	c #A49E6F",
"J#	c #39382B",
"K#	c #69441E",
"L#	c #B56C07",
"M#	c #B66F12",
"N#	c #9C621B",
"O#	c #694525",
"P#	c #AA6505",
"Q#	c #D38C31",
"R#	c #34351F",
"S#	c #5D5934",
"T#	c #595430",
"U#	c #66643E",
"V#	c #655A3C",
"W#	c #3F2B1E",
"X#	c #604025",
"Y#	c #714922",
"Z#	c #AA6506",
"`#	c #D27E08",
" $	c #DE870E",
".$	c #C87C1B",
"+$	c #734C22",
"@$	c #0A0704",
"#$	c #0F0904",
"$$	c #3C2818",
"%$	c #A16315",
"&$	c #9B6120",
"*$	c #7D5126",
"=$	c #472F1C",
"                                                                ",
"                  .                                             ",
"                  + @                                           ",
"                  # $                                           ",
"                % & *                                           ",
"                = - ;                                           ",
"                > , ' )                                         ",
"                ! ~ { ]                             ^ /         ",
"              ( _ : < [                         } | 1 2 3       ",
"              4 5 6 7 8 9                     0 a b c d e       ",
"            f g h i j k l               m   n o p q r s t       ",
"            u v w x y z A B         C D E F   G H I J K L       ",
"            M N O P Q R S       T U V W X Y   Z `  ...+.@.      ",
"            #.$.%.&.*.=.-.;.>.  ,.'.).!.~.{.  ].^./.(._.:.      ",
"            <.[.}.|.1.2.3.4.5.  6.7.8.9...0.a.b.c.d.e.f.g.h.    ",
"          i.j.k.l.m.n.o.p.!.q.r.s.t.u.v.w.x.y.z.t.A.B.C.D.E.    ",
"        F.G.H.I.J.K.L.M.N.O.P.Q.R.o.d.S.!.J T.U.'.V.W W.X.Y.    ",
"        Z.`. +.+++@+#+$+%+V.&+*+=+'.d.-+;+>+,+'+)+!+&+~+{+]+    ",
"      ^+/+(+_+:+<+[+}+|+1+2+O.3+4+5+6+7+8+9+0+a+b+).c+W.d+e+    ",
"        f+g+h+i+j+k+l+m+n+o+p+q+r+A.s+t+u+v+w+x+y+O.z+A+B+e+    ",
"        C+D+E+F+G+H+I+J+K+L+M+N+O+P+Q+R+S+T+;+U+V+W+X+Y+Z+`+    ",
"         @.@+@@@#@$@%@&@*@=@-@8.;@R+>@Q+s+,@).'@)@!@~@f.{@]@    ",
"      ^@/@(@_@:@<@[@}@|@1@2@3@N.4@S+5@6@M+7@u.Q+8@!.9@0@a@b@    ",
"      c@d@e@f@g@h@i@j@k@l@m@n@o@p@q@R+r@s@o.'.)+Q+B.t@u@v@w@    ",
"    x@y@z@A@B@C@D@E@F@G@H@I@J@K@L@M@-+N@O@P@Q@R@d.S@T@U@v@V@    ",
"  W@X@Y@Z@`@ #.#+#@###$#%#&#*#=#8.-#;#>#,#'#)#3@!#~#{#]#v@^#    ",
"              /#(#_#:#<#[#}#|#1#2#u+3#  4#5#6#'#c.7#9@8#9#0#    ",
"                a#b#c#d#e#f#g#h#M+i#j#    k#g#l#m#n#z+o#p#q#    ",
"                r#s#t#    u#v#w#x#A.y#    z#A#m@B#C#D#~@E#      ",
"              F#G#H#I#J#  K#L#M#N#O#        f#P#$+c.I &+Q#      ",
"              R#S#T#U#V#  W#X#              Y#Z#l#`# $.$+$      ",
"                  @$#$                      $$%$&$*$=$          "};
