<?xml version="1.0" encoding="UTF-8" standalone="no"?>
<!-- Created with Inkscape (http://www.inkscape.org/) -->

<svg
   xmlns:dc="http://purl.org/dc/elements/1.1/"
   xmlns:cc="http://creativecommons.org/ns#"
   xmlns:rdf="http://www.w3.org/1999/02/22-rdf-syntax-ns#"
   xmlns:svg="http://www.w3.org/2000/svg"
   xmlns="http://www.w3.org/2000/svg"
   xmlns:xlink="http://www.w3.org/1999/xlink"
   xmlns:sodipodi="http://sodipodi.sourceforge.net/DTD/sodipodi-0.dtd"
   xmlns:inkscape="http://www.inkscape.org/namespaces/inkscape"
   width="652"
   height="652"
   id="svg2"
   version="1.1"
   inkscape:version="0.91 r13725"
   inkscape:export-filename="/home/jenyay/projects/soft/outwiker/images/outwiker_new_year_01.png"
   inkscape:export-xdpi="165.44"
   inkscape:export-ydpi="165.44"
   sodipodi:docname="outwiker_new_year_01.svg">
  <defs
     id="defs4">
    <linearGradient
       id="linearGradient3963">
      <stop
         id="stop3965"
         offset="0"
         style="stop-color:#006900;stop-opacity:1;" />
      <stop
         id="stop3967"
         offset="1"
         style="stop-color:#00a700;stop-opacity:1;" />
    </linearGradient>
    <linearGradient
       id="linearGradient3905">
      <stop
         style="stop-color:#00a000;stop-opacity:1;"
         offset="0"
         id="stop3907" />
      <stop
         style="stop-color:#92ff93;stop-opacity:1;"
         offset="1"
         id="stop3909" />
    </linearGradient>
    <linearGradient
       id="linearGradient3897">
      <stop
         style="stop-color:#007d00;stop-opacity:1;"
         offset="0"
         id="stop3899" />
      <stop
         style="stop-color:#009300;stop-opacity:0"
         offset="1"
         id="stop3901" />
    </linearGradient>
    <linearGradient
       id="linearGradient3812">
      <stop
         id="stop3814"
         offset="0"
         style="stop-color:#351000;stop-opacity:0.76963353;" />
      <stop
         id="stop3816"
         offset="1"
         style="stop-color:#764b23;stop-opacity:0;" />
    </linearGradient>
    <linearGradient
       id="linearGradient3780">
      <stop
         style="stop-color:#351000;stop-opacity:1;"
         offset="0"
         id="stop3782" />
      <stop
         style="stop-color:#764b23;stop-opacity:0;"
         offset="1"
         id="stop3784" />
    </linearGradient>
    <linearGradient
       inkscape:collect="always"
       xlink:href="#linearGradient3963-4"
       id="linearGradient3961-0"
       x1="338.99878"
       y1="90.728523"
       x2="348.92279"
       y2="89.579475"
       gradientUnits="userSpaceOnUse" />
    <linearGradient
       id="linearGradient3963-4">
      <stop
         id="stop3965-9"
         offset="0"
         style="stop-color:#006300;stop-opacity:1;" />
      <stop
         id="stop3967-4"
         offset="1"
         style="stop-color:#00a700;stop-opacity:1;" />
    </linearGradient>
    <linearGradient
       gradientTransform="translate(-6.894425,32.540843)"
       y2="89.579475"
       x2="348.92279"
       y1="90.728523"
       x1="338.99878"
       gradientUnits="userSpaceOnUse"
       id="linearGradient3984-0"
       xlink:href="#linearGradient3963-4-3"
       inkscape:collect="always" />
    <linearGradient
       id="linearGradient3963-4-3">
      <stop
         id="stop3965-9-6"
         offset="0"
         style="stop-color:#005f00;stop-opacity:1;" />
      <stop
         id="stop3967-4-2"
         offset="1"
         style="stop-color:#00a700;stop-opacity:1;" />
    </linearGradient>
    <linearGradient
       y2="89.579475"
       x2="348.92279"
       y1="90.728523"
       x1="338.99878"
       gradientTransform="translate(-11.080806,62.875753)"
       gradientUnits="userSpaceOnUse"
       id="linearGradient4018-5"
       xlink:href="#linearGradient3963-4-3-8"
       inkscape:collect="always" />
    <linearGradient
       id="linearGradient3963-4-3-8">
      <stop
         id="stop3965-9-6-8"
         offset="0"
         style="stop-color:#007100;stop-opacity:1;" />
      <stop
         id="stop3967-4-2-1"
         offset="1"
         style="stop-color:#00a700;stop-opacity:1;" />
    </linearGradient>
  </defs>
  <sodipodi:namedview
     id="base"
     pagecolor="#ffffff"
     bordercolor="#666666"
     borderopacity="1.0"
     inkscape:pageopacity="0.0"
     inkscape:pageshadow="2"
     inkscape:zoom="0.125"
     inkscape:cx="-1289.1312"
     inkscape:cy="-504.82297"
     inkscape:document-units="px"
     inkscape:current-layer="layer1"
     showgrid="false"
     inkscape:window-width="1551"
     inkscape:window-height="876"
     inkscape:window-x="49"
     inkscape:window-y="24"
     inkscape:window-maximized="1"
     fit-margin-top="0"
     fit-margin-left="0"
     fit-margin-right="0"
     fit-margin-bottom="0"
     showguides="false" />
  <metadata
     id="metadata7">
    <rdf:RDF>
      <cc:Work
         rdf:about="">
        <dc:format>image/svg+xml</dc:format>
        <dc:type
           rdf:resource="http://purl.org/dc/dcmitype/StillImage" />
        <dc:title></dc:title>
      </cc:Work>
    </rdf:RDF>
  </metadata>
  <g
     inkscape:label="Layer 1"
     inkscape:groupmode="layer"
     id="layer1"
     transform="translate(-20.055717,30.823769)">
    <rect
       style="fill:#ffffff;fill-opacity:1;stroke:#ffffff;stroke-width:3.77337003;stroke-linecap:round;stroke-miterlimit:4;stroke-dasharray:none"
       id="rect4296"
       width="648.22662"
       height="648.22662"
       x="21.942402"
       y="-28.937084"
       inkscape:export-xdpi="165"
       inkscape:export-ydpi="165" />
    <g
       id="g3980"
       style="stroke-width:6;stroke-miterlimit:4;stroke-dasharray:none"
       transform="matrix(1.8793474,0,0,1.8793474,-240.64239,-98.044023)"
       inkscape:export-xdpi="165"
       inkscape:export-ydpi="165">
      <g
         id="g4168">
        <g
           style="stroke-width:6;stroke-miterlimit:4;stroke-dasharray:none"
           id="g3976">
          <path
             sodipodi:nodetypes="ssssssssssssss"
             inkscape:connector-curvature="0"
             id="rect3152"
             d="m 260.56971,114.49635 c -35.24787,0 -63.51399,28.80784 -63.51399,63.08957 l 0,74.40456 c 0,34.28173 28.26612,63.08957 63.51399,63.08957 35.24785,0 63.51397,-28.80784 63.51397,-63.08957 l 0,-74.40456 c 0,-34.28173 -28.26612,-63.08957 -63.51397,-63.08957 z m 0,37.10702 c 13.90671,0 16.69993,10.90627 16.69993,25.98255 l 0,74.40456 c 0,15.07628 -2.79322,25.98255 -16.69993,25.98255 -13.90673,0 -17.40706,-10.90627 -17.40706,-25.98255 l 0,-74.40456 c 0,-15.07628 3.50033,-25.98255 17.40706,-25.98255 z"
             style="color:#000000;font-style:normal;font-variant:normal;font-weight:normal;font-stretch:normal;font-size:medium;line-height:normal;font-family:Sans;-inkscape-font-specification:Sans;text-indent:0;text-align:start;text-decoration:none;text-decoration-line:none;letter-spacing:normal;word-spacing:normal;text-transform:none;direction:ltr;block-progression:tb;writing-mode:lr-tb;baseline-shift:baseline;text-anchor:start;overflow:visible;visibility:visible;fill:#00a500;fill-opacity:1;stroke:#000000;stroke-width:6;stroke-miterlimit:4;stroke-dasharray:none;stroke-opacity:1;marker:none;enable-background:accumulate"
             inkscape:label="#O" />
          <path
             style="color:#000000;font-style:normal;font-variant:normal;font-weight:normal;font-stretch:normal;font-size:medium;line-height:normal;font-family:Sans;-inkscape-font-specification:Sans;text-indent:0;text-align:start;text-decoration:none;text-decoration-line:none;letter-spacing:normal;word-spacing:normal;text-transform:none;direction:ltr;block-progression:tb;writing-mode:lr-tb;baseline-shift:baseline;text-anchor:start;display:inline;overflow:visible;visibility:visible;fill:#006e00;fill-opacity:1;stroke:none;stroke-width:6;marker:none;enable-background:accumulate"
             d="m 232.28722,129.3395 c -10.42985,6.91421 -25.2315,22.96469 -28.7315,48.74642 l 0,74.40456 c 0,34.28173 32.06942,62.03932 66.61018,57.08957 -33.36994,-5.12298 -47.14549,-27.67583 -47.8311,-56.35519 l -1.81671,-75.9934 c -0.36414,-15.23217 6.00166,-37.40117 11.76913,-47.89196 z"
             id="path3974"
             inkscape:connector-curvature="0"
             sodipodi:nodetypes="ccscssc" />
        </g>
      </g>
      <g
         id="g3969"
         style="stroke-width:6;stroke-miterlimit:4;stroke-dasharray:none">
        <path
           style="color:#000000;font-style:normal;font-variant:normal;font-weight:normal;font-stretch:normal;font-size:medium;line-height:normal;font-family:Sans;-inkscape-font-specification:Sans;text-indent:0;text-align:start;text-decoration:none;text-decoration-line:none;letter-spacing:normal;word-spacing:normal;text-transform:none;direction:ltr;block-progression:tb;writing-mode:lr-tb;baseline-shift:baseline;text-anchor:start;overflow:visible;visibility:visible;fill:#ffa20e;fill-opacity:1;stroke:#000000;stroke-width:6;stroke-miterlimit:4;stroke-dasharray:none;stroke-opacity:1;marker:none;enable-background:accumulate"
           d="m 437.23452,136.87502 -45.43113,10.78586 c 8.80124,51.26494 13.60232,102.04853 13.37815,153.21393 -22.8432,-36.06955 -37.03094,-85.20417 -43.9999,-124.52901 l -45.40245,10.92097 c 5.30556,34.92071 9.4476,72.16691 7.03024,104.29904 -10.12372,-21.92025 -21.16238,-50.25304 -25.06273,-75.00563 l -45.5111,10.18438 c 9.42363,51.62387 30.92899,101.2644 56.09704,140.48878 18.35225,-7.85696 36.96033,-16.10185 53.92558,-23.31513 l 2.96926,-16.20961 c 7.54958,17.65163 17.99451,31.2039 23.8069,38.60707 l 61.82087,-25.30121 c 1.17329,-70.29765 3.02775,-104.11144 -13.62073,-204.13944 z"
           id="path3853-8"
           inkscape:connector-curvature="0"
           sodipodi:nodetypes="cccccccccccccc"
           inkscape:label="#W" />
        <path
           style="fill:#ff7015;fill-opacity:1;stroke:none"
           d="m 262.5,239.86218 c 10.89001,42.10238 28.31272,79.53853 48.5,115 l 42.5,-16 c -36.15102,-2.47383 -42.07636,15.53451 -91,-99 z"
           id="path3930"
           inkscape:connector-curvature="0"
           sodipodi:nodetypes="cccc" />
        <path
           style="fill:#ff7015;fill-opacity:1;stroke:none"
           d="m 327.5,205.36218 c 10.89001,44.60238 34.31272,104.53853 64,150 l 50,-19 c -47.15102,7.02617 -66.07636,-13.46549 -114,-131 z"
           id="path3930-8"
           inkscape:connector-curvature="0"
           sodipodi:nodetypes="cccc" />
      </g>
    </g>
    <g
       id="g4207"
       transform="translate(-9,13)"
       inkscape:export-xdpi="165"
       inkscape:export-ydpi="165">
      <g
         transform="translate(-1.21357e-8,5)"
         id="g4195">
        <path
           transform="matrix(1.8793474,0,0,1.8793474,-240.64239,-98.04402)"
           style="fill:#ffffff;fill-opacity:1;stroke:#000000;stroke-width:4.25498486;stroke-miterlimit:4;stroke-dasharray:none"
           d="m 293.29132,171.34959 c 39.64159,3.39469 97.93014,-17.09959 142.89591,-47.54756 13.5913,-9.20318 18.58291,40.53612 14.11113,47.17703 -11.64037,17.2868 -94.05654,48.48218 -145.84302,50.17112 -18.07311,0.58943 -28.62623,-51.29596 -11.16402,-49.80059 z"
           id="rect4183"
           inkscape:connector-curvature="0"
           sodipodi:nodetypes="sssss" />
        <circle
           transform="matrix(1.8793474,0,0,1.8793474,-240.64239,-98.04402)"
           style="fill:#ffffff;fill-opacity:1;stroke:#000000;stroke-width:4.25679684;stroke-miterlimit:4;stroke-dasharray:none"
           id="path4188"
           cx="274.66696"
           cy="124.08789"
           r="16.178802" />
        <path
           transform="matrix(1.8793474,0,0,1.8793474,-240.64239,-98.04402)"
           style="fill:#ff0000;fill-rule:evenodd;stroke:#000000;stroke-width:4.25679684;stroke-linecap:butt;stroke-linejoin:miter;stroke-miterlimit:4;stroke-dasharray:none;stroke-opacity:1"
           d="m 294.23203,178.26807 c 21.43088,12.18583 132.21476,-21.53896 141.09422,-44.39765 2.94479,-7.58087 -10.40651,-25.39759 -16.16776,-31.28092 -29.54518,-30.171198 -39.81645,-51.927387 -69.24127,-60.52438 -7.43406,-2.171995 -13.45365,0.785718 -21.23765,2.707489 -5.72876,1.414357 -1.76164,0.396151 -11.87246,4.441287 -7.67601,3.071022 -10.42394,4.692389 -14.68096,8.385419 -3.08499,2.676281 -5.52729,5.164195 -7.51786,9.674641 -10.20402,23.121412 -9.95157,24.95594 -17.68381,38.753874 0,0 -8.93656,8.87382 0.15332,14.29232 9.99687,5.95917 19.82821,-27.768359 30.32303,-36.491141 9.25476,-7.779625 3.97935,-4.095149 6.01118,5.966291 3.40013,16.8372 3.85623,44.17808 -8.90351,66.35098 -2.52229,4.38305 -14.5518,19.69079 -10.27647,22.12179 z"
           id="path4186"
           inkscape:connector-curvature="0"
           sodipodi:nodetypes="ssssssassscsss" />
        <path
           sodipodi:nodetypes="cc"
           style="fill:none;fill-rule:evenodd;stroke:#000000;stroke-width:8.02779198;stroke-linecap:round;stroke-linejoin:miter;stroke-miterlimit:4;stroke-dasharray:none;stroke-opacity:1"
           d="M 349.10712,50.998535 372.72385,40.302591"
           id="path4190"
           inkscape:connector-curvature="0" />
      </g>
      <path
         sodipodi:nodetypes="ssssssaass"
         inkscape:connector-curvature="0"
         id="path4201"
         d="m 303.56846,249.19385 c 1.39201,12.23018 2.64594,23.27969 7.46213,36.1656 3.30803,8.85077 6.8471,18.84521 14.53787,24.3344 2.63399,1.87998 6.26614,1.88019 9.5,2 25.03887,0.92768 49.0108,-4.47654 74.5,-10 14.95823,-3.24142 -21.4275,-0.20932 -45.89056,1.53453 -5.49549,0.39175 -18.07164,1.6647 -26.35944,-1.28453 -4.04418,-1.43913 -7.55365,-4.39741 -10.36707,-7.6395 -8.06025,-9.28834 -10.38621,-17.29759 -17.48431,-32.48796 -1.9661,-4.20757 -6.90683,-21.48069 -5.89862,-12.62254 z"
         style="fill:#cccccc;fill-rule:evenodd;stroke:#cccccc;stroke-width:1px;stroke-linecap:butt;stroke-linejoin:miter;stroke-opacity:1" />
      <path
         sodipodi:nodetypes="ssssssssssss"
         inkscape:connector-curvature="0"
         id="path4203"
         d="m 358.74003,64.90096 c 0.31803,5.044028 3.05817,14.953846 5.11849,25.496248 2.81596,14.408892 0.75067,30.160612 -0.43651,41.857302 -5.79163,57.06224 -17.65034,54.41417 -22.7071,87.87868 -0.64745,4.28469 0.35355,14.06066 0.35355,14.06066 47.62822,8.55776 172.2628,-43.08289 129,-36 -15.15984,2.48194 -21.94693,8.13459 -36.27985,13.20965 -18.61382,6.59085 -55.03291,17.48178 -68.01304,8.76522 -6.21867,-4.17603 -1.92936,-20.12965 -0.0962,-32.91421 3.69107,-25.74175 5.45571,-39.00455 7,-60.25 0.68033,-9.35964 0.2273,-24.71513 -2.45692,-40.740531 -3.2179,-19.211474 -12.36478,-35.357557 -11.48242,-21.363019 z"
         style="fill:#d40000;fill-rule:evenodd;stroke:#d40000;stroke-width:1px;stroke-linecap:butt;stroke-linejoin:miter;stroke-opacity:1" />
      <path
         sodipodi:nodetypes="saacaaas"
         inkscape:connector-curvature="0"
         id="path4205"
         d="m 258.56846,127.19385 c -1.91074,4.51715 -2.98762,9.61965 -2.5,14.5 0.43542,4.35786 1.56254,9.24656 4.75,12.25 5.22382,4.92224 15.2524,6.89198 20.50305,6.57843 0,0 -5.16157,-1.76043 -7.51305,-3.10783 -2.7756,-1.59042 -5.4139,-3.50738 -7.64901,-5.79598 -2.55394,-2.61507 -5.16011,-5.46087 -6.41421,-8.89429 -1.78121,-4.87649 -1.17678,-15.53033 -1.17678,-15.53033 z"
         style="fill:#cccccc;fill-rule:evenodd;stroke:#cccccc;stroke-width:1px;stroke-linecap:butt;stroke-linejoin:miter;stroke-opacity:1" />
    </g>
    <path
       inkscape:connector-curvature="0"
       style="fill:#ff0000;fill-opacity:1;fill-rule:nonzero;stroke:none;stroke-width:4;stroke-linecap:butt;stroke-linejoin:miter;stroke-miterlimit:4;stroke-dasharray:none;stroke-opacity:1"
       d="m 295.54874,370.53304 c -0.0199,-0.0293 -0.0861,0.0607 -0.0615,0.0869 0.0824,0.0877 0.1694,0.17373 0.2559,0.25968 -0.027,-0.0734 -0.0826,-0.1816 -0.19444,-0.34672 z m 6.41266,5.96011 c -0.0238,0.003 -0.0477,0.005 -0.0715,0.008 10e-5,0.0387 3.1e-4,0.0777 0,0.11654 0.031,-0.0413 0.0445,-0.0831 0.0715,-0.12493 z"
       id="path4260"
       inkscape:export-xdpi="165"
       inkscape:export-ydpi="165" />
    <flowRoot
       transform="translate(-209.59197,50.141892)"
       xml:space="preserve"
       id="flowRoot4451"
       style="font-style:normal;font-weight:normal;font-size:40px;line-height:125%;font-family:sans-serif;letter-spacing:0px;word-spacing:0px;fill:#000000;fill-opacity:1;stroke:none;stroke-width:1px;stroke-linecap:butt;stroke-linejoin:miter;stroke-opacity:1"><flowRegion
         id="flowRegion4453"><rect
           id="rect4455"
           width="5.5897298"
           height="86.640823"
           x="113.89076"
           y="191.54369" /></flowRegion><flowPara
         id="flowPara4457" /></flowRoot>    <flowRoot
       transform="translate(-209.59197,50.141892)"
       xml:space="preserve"
       id="flowRoot4459"
       style="font-style:normal;font-weight:normal;font-size:40px;line-height:125%;font-family:sans-serif;letter-spacing:0px;word-spacing:0px;fill:#000000;fill-opacity:1;stroke:none;stroke-width:1px;stroke-linecap:butt;stroke-linejoin:miter;stroke-opacity:1"><flowRegion
         id="flowRegion4461"><rect
           id="rect4463"
           width="1.0929686"
           height="76.234566"
           x="119.48049"
           y="191.54369" /></flowRegion><flowPara
         id="flowPara4465" /></flowRoot>    <flowRoot
       transform="translate(-209.59197,50.141892)"
       xml:space="preserve"
       id="flowRoot4467"
       style="font-style:normal;font-weight:normal;font-size:40px;line-height:125%;font-family:sans-serif;letter-spacing:0px;word-spacing:0px;fill:#000000;fill-opacity:1;stroke:none;stroke-width:1px;stroke-linecap:butt;stroke-linejoin:miter;stroke-opacity:1"><flowRegion
         id="flowRegion4469"><rect
           id="rect4471"
           width="3.4935901"
           height="377.30682"
           x="119.48049"
           y="191.54369" /></flowRegion><flowPara
         id="flowPara4473" /></flowRoot>  </g>
</svg>
