<svg xmlns="http://www.w3.org/2000/svg" width="10mm" height="10mm" viewBox="0 0 10 10"><path d="M2.139 6.838H7.86v5.852H2.139zM2.139-4.866H7.86V.986H2.139z" style="fill:#fcfdff;fill-opacity:1;stroke:#4681c2;stroke-width:.739593;stroke-linecap:round;stroke-dasharray:none;stroke-dashoffset:.695433;stroke-opacity:1;paint-order:fill markers stroke"/><path d="M5.5 7.695v3.335q0 .376.032.481.033.103.139.169.105.066.336.066h.094v.111H3.953v-.111h.109q.261 0 .373-.06.11-.06.15-.166.04-.105.04-.49V8.916q0-.283-.028-.352-.027-.072-.102-.12-.072-.051-.169-.051-.153 0-.373.096L3.9 8.381 5.4 7.695Z" aria-label="1" style="font-weight:700;font-size:8.74847px;line-height:1.25;font-family:&quot;Times New Roman&quot;;-inkscape-font-specification:&quot;Times New Roman, &quot;;fill:#565656;stroke-width:.153974"/><path d="M2.139.986H7.86v5.852H2.139z" style="fill:#fcfdff;fill-opacity:1;stroke:#4681c2;stroke-width:.739593;stroke-linecap:round;stroke-dasharray:none;stroke-dashoffset:.695433;stroke-opacity:1;paint-order:fill markers stroke"/><path d="M6.017 5.962H3.77v-.065q1.034-1.295 1.254-1.742.222-.447.222-.874 0-.311-.183-.515-.183-.208-.448-.208-.434 0-.673.456l-.105-.038q.153-.569.462-.841.31-.273.716-.273.29 0 .53.142t.375.391q.135.246.135.462 0 .394-.209.8-.284.548-1.242 1.529h.825q.305 0 .395-.027.093-.027.152-.089.059-.065.155-.27h.101z" aria-label="2" style="font-weight:700;font-size:8.74847px;line-height:1.25;font-family:&quot;Times New Roman&quot;;-inkscape-font-specification:&quot;Times New Roman, &quot;;fill:#565656;stroke-width:.147919"/><path d="M-19.868 14.925h5.709v7.118h-5.709z" style="fill:#fcfdff;fill-opacity:1;stroke:#4681c2;stroke-width:.6;stroke-linecap:round;stroke-dasharray:none;stroke-dashoffset:.695433;stroke-opacity:1;paint-order:fill markers stroke"/><text xml:space="preserve" x="-18.875" y="21.275" style="font-size:8.74847px;line-height:1.25;font-family:&quot;Times New Roman&quot;;-inkscape-font-specification:&quot;Times New Roman, &quot;;fill:#565656;fill-opacity:1;stroke-width:.218712"><tspan x="-18.875" y="21.275" style="font-style:normal;font-weight:700;fill:#565656;fill-opacity:1;stroke-width:.218712">1</tspan></text><path d="M-19.758 6.605h5.709v7.118h-5.709z" style="fill:#fcfdff;fill-opacity:1;stroke:#4681c2;stroke-width:.6;stroke-linecap:round;stroke-dasharray:none;stroke-dashoffset:.695433;stroke-opacity:1;paint-order:fill markers stroke"/><text xml:space="preserve" x="-18.765" y="12.956" style="font-size:8.74847px;line-height:1.25;font-family:&quot;Times New Roman&quot;;-inkscape-font-specification:&quot;Times New Roman, &quot;;fill:#565656;fill-opacity:1;stroke-width:.218712"><tspan x="-18.765" y="12.956" style="font-style:normal;font-weight:700;fill:#565656;fill-opacity:1;stroke-width:.218712">2</tspan></text></svg>