<svg xmlns="http://www.w3.org/2000/svg" xmlns:xlink="http://www.w3.org/1999/xlink" xml:space="preserve" width="10mm" height="10mm" viewBox="0 0 10 10"><defs><linearGradient id="a"><stop offset="0" style="stop-color:#fff;stop-opacity:1"/><stop offset=".5" style="stop-color:#ccc;stop-opacity:1"/><stop offset="1" style="stop-color:#fff;stop-opacity:1"/></linearGradient><linearGradient xlink:href="#a" id="b" x1="2.424" x2="7.532" y1="4.029" y2="4.029" gradientTransform="matrix(1 0 0 1.2626 0 -.368)" gradientUnits="userSpaceOnUse"/></defs><path d="M6.308 7.694c-.264 0-.418.438-.683.592-.181.106-.426.115-.625.115-.212 0-.385.018-.59-.115-.252-.164-.417-.592-.663-.592H.665V1.779h3.082c.434 0 .753.719 1.23.719.479 0 .897-.719 1.331-.719H9.39v5.915z" style="fill:#314662;fill-opacity:1;stroke:#314662;stroke-width:.999999;stroke-linecap:round;stroke-linejoin:round;stroke-miterlimit:2;stroke-dasharray:none;stroke-opacity:1;paint-order:fill markers stroke"/><path d="M6.19 7.375c-.41 0-.738.689-1.19.657-.452.032-.823-.657-1.235-.657H.847V1.403h2.918c.412 0 .783.658 1.235.658s.78-.658 1.19-.658h2.92v5.972z" style="fill:url(#b);fill-opacity:1;stroke:#4d6f9e;stroke-width:.4;stroke-linecap:round;stroke-linejoin:round;stroke-miterlimit:2;stroke-opacity:1;paint-order:fill markers stroke"/><path d="M4.978 2.498v5.095" style="fill:none;fill-opacity:1;stroke:#6a6a6a;stroke-width:.399999;stroke-linecap:round;stroke-linejoin:round;stroke-miterlimit:2;stroke-opacity:1;paint-order:fill markers stroke"/><path d="M6.25 2.993h2.084" style="fill:none;fill-opacity:1;stroke:#b5b5b5;stroke-width:.4;stroke-linecap:round;stroke-linejoin:round;stroke-miterlimit:2;stroke-opacity:1;paint-order:fill markers stroke"/><path d="M6.25 2.993h2.084M6.25 4.256h2.084M6.25 5.518h2.084M3.75 2.993H1.665M3.75 4.256H1.665M3.75 5.518H1.665" style="fill:none;fill-opacity:1;stroke:#6a6a6a;stroke-width:.400001;stroke-linecap:round;stroke-linejoin:round;stroke-miterlimit:2;stroke-opacity:1;paint-order:fill markers stroke"/></svg>