<?xml version="1.0" encoding="UTF-8" standalone="no"?>
<svg
   width="10"
   height="10"
   viewBox="0 0 10 10"
   version="1.1"
   id="svg7"
   sodipodi:docname="__std_money-dollar.svg"
   inkscape:version="1.4.4 (dcaf3e7d9e, 2026-05-05)"
   xml:space="preserve"
   xmlns:inkscape="http://www.inkscape.org/namespaces/inkscape"
   xmlns:sodipodi="http://sodipodi.sourceforge.net/DTD/sodipodi-0.dtd"
   xmlns="http://www.w3.org/2000/svg"
   xmlns:svg="http://www.w3.org/2000/svg"><defs
     id="defs7" /><sodipodi:namedview
     id="namedview7"
     pagecolor="#ffffff"
     bordercolor="#666666"
     borderopacity="1.0"
     inkscape:showpageshadow="2"
     inkscape:pageopacity="0.0"
     inkscape:pagecheckerboard="0"
     inkscape:deskcolor="#d1d1d1"
     inkscape:zoom="43.1"
     inkscape:cx="2.3085847"
     inkscape:cy="5.3016241"
     inkscape:window-width="1916"
     inkscape:window-height="1160"
     inkscape:window-x="0"
     inkscape:window-y="0"
     inkscape:window-maximized="1"
     inkscape:current-layer="svg7" /><path
     id="path2"
     style="fill:#005d2d;fill-opacity:1;stroke:none;stroke-width:1;stroke-opacity:1"
     d="M 4.5624835,0.0563813 C 4.4262982,0.1036683 4.3710141,0.182223 4.3691241,0.3278657 c 0.00126,0.14879515 0.00541,0.29513306 0.011719,0.44140625 C 3.6148003,0.90545734 2.9170106,1.2669843 2.4687337,1.9157563 1.742411,2.9617358 1.977996,4.3196153 3.0409993,5.0251313 3.4741445,5.3088508 3.88125,5.447848 4.3730306,5.5934907 c 0,0.6147257 0.00757,1.2387899 0,1.8535156 C 3.947451,7.2616428 3.6429332,6.9347773 3.4745929,6.4997407 3.4065002,6.3181602 3.3626296,6.0839914 3.1034991,6.1520844 2.7932991,6.2353084 2.4860262,6.3385761 2.177718,6.4274751 1.920479,6.5031331 1.669138,6.5401367 1.765608,6.8806001 2.143902,8.189493 3.0944626,8.8837432 4.3749835,9.159897 4.3730935,9.9448543 4.27179,9.9450532 5.0605304,9.9450532 5.2666999,9.9469432 5.6210773,10.00001 5.6210772,9.7087251 V 9.1872407 C 5.7534798,9.1702177 5.8948015,9.1334582 6.023421,9.1013032 6.6797589,8.9348544 7.3301402,8.583668 7.7519366,8.0427094 A 2.2697564,2.2697564 0 0 0 8.2304522,6.2809907 C 8.1585766,5.7022028 7.8483427,5.2186171 7.3906085,4.863022 6.9177425,4.4941864 6.2054764,4.2030105 5.6191241,4.0876313 5.6210141,3.5750446 5.6116141,3.0416859 5.6210741,2.5309907 A 1.5699149,1.5699149 0 0 1 6.2421679,3.128647 C 6.3405239,3.30077 6.3968532,3.5224178 6.6484179,3.4391938 7.0342765,3.3067914 7.4284516,3.1845693 7.8105273,3.0427094 8.0375028,2.9594854 7.9159762,2.6586853 7.8554493,2.5016938 7.4847226,1.5389388 6.5994538,1.0007705 5.6366993,0.79270945 c 0,-0.1872549 0.01287,-0.38684052 -0.011719,-0.5703125 C 5.6174103,0.14673845 5.5210129,0.0679738 5.4472459,0.0641938 a 9.4573185,9.4573185 0 0 0 -0.8652343,-0.00781 z m -0.1875,2.4023438 0.00977,0.00586 c 0.01324,0.081333 0.00586,0.3567221 0.00586,0.4550782 V 3.8024758 A 1.1348782,1.1348782 0 0 1 4.0566291,3.5837258 0.75658548,0.75658548 0 0 1 3.8867072,3.3610695 0.56743911,0.56743911 0 0 1 3.8652232,2.9235695 C 3.9483022,2.6932136 4.1616268,2.5570422 4.3749888,2.4587258 Z m 1.2382813,3.40625 C 6.2367302,6.1036703 6.8167666,6.6431322 6.1894366,7.2477876 A 1.513171,1.513171 0 0 1 5.6132648,7.5329438 c 0.00378,-0.5558486 0.00378,-1.1121201 0,-1.6679687 z" /><path
     id="path3"
     style="fill:#92c090;stroke-width:1;stroke:none;fill-opacity:1"
     d="m 4.7988116,0.48020945 c 0.00126,0.13870734 0.00334,0.27730828 0.00586,0.41601563 C 4.8122416,1.1704873 4.6003766,1.1630833 4.3847497,1.2009126 3.3917313,1.3730358 2.489976,2.1612242 2.482406,3.2204438 c 0.00378,1.1689246 1.0559947,1.7440358 2.0546875,1.9804688 0.1777971,0.043504 0.2709914,0.1040073 0.2558593,0.2988281 0.00189,0.4426025 -0.00567,0.8835694 0,1.3261719 l 0.00586,0.6152344 c 0,0.1002475 0.00744,0.214144 -0.00391,0.3125 C 4.7665308,8.0260178 4.498461,7.944848 4.3320122,7.878647 4.0199231,7.7557019 3.7464287,7.5991466 3.5175616,7.3532563 3.3763323,7.1994173 3.2586192,7.028162 3.164046,6.8415376 3.1299996,6.7715535 3.0906701,6.6792851 3.0566241,6.6149751 A 9.4573185,9.4573185 0 0 0 2.220687,6.8669282 2.6480492,2.6480492 0 0 0 3.5136554,8.4274751 c 0.3688354,0.1910378 0.7436027,0.2723677 1.1464844,0.359375 0.2565298,0.053138 0.093284,0.6503841 0.1601562,0.7324219 l 0.00195,0.00195 0.00195,0.00195 0.00195,0.00195 h 0.00195 0.011719 L 5.19919,9.523172 C 5.1840705,8.7174174 5.1310217,8.8789568 5.8554522,8.7087251 6.8787341,8.4628348 7.8035195,7.7691994 7.8281085,6.628647 7.8356743,6.1690212 7.6594229,5.7233866 7.3378741,5.394272 7.1165728,5.1635133 6.7757673,4.9428749 6.4882648,4.816147 6.2562451,4.7140078 6.0180506,4.6290724 5.773421,4.5622407 5.6485844,4.5300859 5.2567479,4.4518588 5.2245929,4.3610688 5.1810899,4.2381237 5.1972491,3.6342197 5.1972491,3.5056001 V 2.2790376 C 5.1991391,1.9064192 5.5092743,2.0069767 5.7343585,2.1091157 a 1.8914637,1.8914637 0 0 1 0.9296875,0.875 C 6.9338948,2.8882816 7.2034831,2.7956091 7.4745929,2.7048188 7.4216319,2.5837651 7.3747784,2.464791 7.3085772,2.3513032 6.9227187,1.6873994 6.2028064,1.3388044 5.4745929,1.1950532 5.2287025,1.1458751 5.2032247,1.0680199 5.2070148,0.82591258 l 0.00391,-0.34570313 z m -0.4238281,1.97851565 0.00977,0.00586 c 0.01324,0.081333 0.00586,0.3567221 0.00586,0.4550782 V 3.8024758 A 1.1348782,1.1348782 0 0 1 4.0566291,3.5837258 0.75658548,0.75658548 0 0 1 3.8867072,3.3610695 0.56743911,0.56743911 0 0 1 3.8652232,2.9235695 C 3.9483022,2.6932136 4.1616268,2.5570422 4.3749888,2.4587258 Z m 1.2382813,3.40625 C 6.2367302,6.1036703 6.8167666,6.6431322 6.1894366,7.2477876 A 1.513171,1.513171 0 0 1 5.6132648,7.5329438 c 0.00378,-0.5558486 0.00378,-1.1121201 0,-1.6679687 z" /><path
     id="path4"
     style="fill:#005d2d;fill-opacity:1;stroke:none;stroke-width:1"
     d="m 5.4003741,5.3806001 c -0.069984,0.01324 -0.10518,0.021258 -0.15625,0.074219 -0.04161,0.041613 -0.050781,0.076068 -0.050781,0.1328125 -0.00252,0.1790586 -0.00391,0.3580508 -0.00391,0.5371094 l -0.00195,0.9824219 c 0,0.098356 -0.00738,0.6852581 0.00586,0.7363281 a 0.18914637,0.18914637 0 0 0 0.087891,0.1132813 C 5.5006439,8.0816088 6.1373179,7.8059716 6.3359216,7.6735691 6.6196411,7.4655081 6.8104276,7.2380253 6.8671716,6.8786473 A 1.0213904,1.0213904 0 0 0 6.6777179,6.1052094 C 6.3845411,5.7080022 5.8905714,5.4827391 5.4101398,5.3806001 Z m 0.2128907,0.484375 C 6.2367302,6.1036703 6.8167666,6.6431322 6.1894366,7.2477876 A 1.513171,1.513171 0 0 1 5.6132648,7.5329438 c 0.00378,-0.5558486 0.00378,-1.1121201 0,-1.6679687 z" /><path
     id="path6"
     style="fill:#005d2d;fill-opacity:1;stroke:none;stroke-width:0.5;stroke-dasharray:none"
     d="M 4.5742022,1.9704438 A 1.6266588,1.6266588 0 0 0 3.601546,2.534897 C 3.2137959,3.0720726 3.4256411,3.6980314 3.960921,4.0290376 4.1311527,4.1368506 4.8124835,4.5507317 4.8124835,4.0778656 4.8105935,3.4290936 4.8255395,2.7774189 4.8066235,2.1286469 4.8028435,2.0416394 4.6555346,1.9742237 4.5742022,1.9704438 Z m -0.1992187,0.4882813 0.00977,0.00586 c 0.01324,0.081333 0.00586,0.3567221 0.00586,0.4550782 V 3.8024758 A 1.1348782,1.1348782 0 0 1 4.0566291,3.5837258 0.75658548,0.75658548 0 0 1 3.8867072,3.3610695 0.56743911,0.56743911 0 0 1 3.8652232,2.9235695 C 3.9483022,2.6932136 4.1616268,2.5570422 4.3749888,2.4587258 Z" /></svg>
