<?xml version="1.0" encoding="UTF-8" standalone="no"?>
<!-- Created with Inkscape (http://www.inkscape.org/) -->

<svg
   width="10mm"
   height="10mm"
   viewBox="0 0 10 10"
   version="1.1"
   id="svg1"
   inkscape:version="1.3.2 (091e20ef0f, 2023-11-25, custom)"
   sodipodi:docname="__std_folder-green.svg"
   xmlns:inkscape="http://www.inkscape.org/namespaces/inkscape"
   xmlns:sodipodi="http://sodipodi.sourceforge.net/DTD/sodipodi-0.dtd"
   xmlns:xlink="http://www.w3.org/1999/xlink"
   xmlns="http://www.w3.org/2000/svg"
   xmlns:svg="http://www.w3.org/2000/svg">
  <sodipodi:namedview
     id="namedview1"
     pagecolor="#ffffff"
     bordercolor="#666666"
     borderopacity="1.0"
     inkscape:showpageshadow="2"
     inkscape:pageopacity="0.0"
     inkscape:pagecheckerboard="0"
     inkscape:deskcolor="#d1d1d1"
     inkscape:document-units="mm"
     inkscape:zoom="12.030079"
     inkscape:cx="27.846866"
     inkscape:cy="15.793745"
     inkscape:window-width="1920"
     inkscape:window-height="1088"
     inkscape:window-x="0"
     inkscape:window-y="40"
     inkscape:window-maximized="1"
     inkscape:current-layer="layer1"
     showguides="true" />
  <defs
     id="defs1">
    <linearGradient
       id="linearGradient6"
       inkscape:collect="always">
      <stop
         style="stop-color:#96b600;stop-opacity:1;"
         offset="0"
         id="stop6" />
      <stop
         style="stop-color:#b9eb2b;stop-opacity:1;"
         offset="1"
         id="stop7" />
    </linearGradient>
    <linearGradient
       id="linearGradient4"
       inkscape:collect="always">
      <stop
         style="stop-color:#96b600;stop-opacity:1;"
         offset="0"
         id="stop4" />
      <stop
         style="stop-color:#b9eb2b;stop-opacity:1;"
         offset="0.86426997"
         id="stop5" />
    </linearGradient>
    <linearGradient
       inkscape:collect="always"
       xlink:href="#linearGradient4"
       id="linearGradient5"
       x1="10.56576"
       y1="4.9214931"
       x2="0.82899231"
       y2="7.9772153"
       gradientUnits="userSpaceOnUse"
       gradientTransform="matrix(0.82751353,0,0,1.005092,0.06516653,0.18372736)" />
    <linearGradient
       inkscape:collect="always"
       xlink:href="#linearGradient6"
       id="linearGradient7"
       x1="8.6462107"
       y1="0.99574435"
       x2="1.4533092"
       y2="6.6405163"
       gradientUnits="userSpaceOnUse"
       gradientTransform="matrix(0.82124091,0,0,1.0052986,0.12777582,-0.7996469)" />
  </defs>
  <g
     inkscape:label="Слой 1"
     inkscape:groupmode="layer"
     id="layer1">
    <path
       id="rect1"
       style="fill:url(#linearGradient7);stroke:#458900;stroke-width:0.397294;stroke-linecap:round;stroke-linejoin:round;stroke-dasharray:none;stroke-opacity:1"
       d="m 0.3423427,1.3913335 c 0.38096302,-0.010926 0.33027397,-2e-7 0.33027397,-2e-7 l 2.98662693,0.031259 c 0,0 -1.13e-5,0.00262 0.2018517,0.00262 0.044058,0 0.030291,0.3117491 0.030291,0.3117491 l 0.00741,0.5264958 c 0,0 -0.017254,0.3998852 0.089101,0.3998852 0.092838,0 0.2922492,-0.00511 0.2922492,-0.00511 l 3.590843,0.00626 c 0,0 0.2236919,6.084e-4 0.3051043,-0.00114 0.081413,-0.00175 0.043579,0.5310349 0.043579,0.5310349 L 8.1743705,8.104363 c 0,0 0.040664,0.4514109 -0.082257,0.4514109 H 7.6758139 0.71208222 0.32800372 c -0.16494946,0 -0.12502108,-0.6057546 -0.12502108,-0.6057546 l 0.0378938,-6.256252 c 0,0 -0.0144236,-0.2991097 0.10146626,-0.3024338 z"
       sodipodi:nodetypes="sccsccscczccsccsccs" />
    <path
       style="fill:url(#linearGradient5);stroke:#458900;stroke-width:0.398767;stroke-linecap:butt;stroke-linejoin:round;stroke-dasharray:none;stroke-opacity:1"
       d="M 0.31257543,8.5550373 0.41611413,8.0703394 1.2749064,5.3686943 c 0,0 0.066358,-0.463406 0.1982731,-0.4652943 0.2528131,-0.00362 0.3943855,0 0.3943855,0 H 5.4925857 L 5.7678227,3.8973243 9.8006249,3.9447666 8.1359842,8.5550373 H 0.75131816 Z"
       id="path4"
       sodipodi:nodetypes="cccsccccccc" />
  </g>
</svg>
